<?xml version="1.0" standalone="no"?>
<!DOCTYPE svg PUBLIC "-//W3C//DTD SVG 20010904//EN"
 "http://www.w3.org/TR/2001/REC-SVG-20010904/DTD/svg10.dtd">
<svg version="1.0" xmlns="http://www.w3.org/2000/svg"
 width="1077.000000pt" height="1280.000000pt" viewBox="0 0 1077.000000 1280.000000"
 preserveAspectRatio="xMidYMid meet">
<metadata>
Created by potrace 1.16, written by Peter Selinger 2001-2019
</metadata>
<g transform="translate(0.000000,1280.000000) scale(0.100000,-0.100000)"
fill="#000000" stroke="none">
<path d="M6050 12791 c0 -5 7 -16 15 -25 19 -19 19 -30 1 -23 -10 4 -13 1 -9
-9 7 -19 19 -18 27 3 6 15 8 15 16 3 6 -9 5 -17 -3 -22 -8 -5 -6 -8 6 -8 11 0
17 -8 17 -24 0 -13 -6 -23 -12 -22 -7 0 -14 -3 -15 -9 -2 -5 11 -10 27 -10 17
1 30 -4 30 -10 0 -11 12 -15 52 -16 28 -1 32 -19 4 -19 -14 0 -26 -4 -26 -10
0 -5 14 -10 30 -10 24 0 30 4 30 22 0 12 3 18 7 14 10 -9 10 -96 1 -96 -5 0
-8 -7 -8 -15 0 -15 -10 -19 -42 -16 -14 2 -18 -5 -17 -26 1 -28 1 -28 8 -3 l7
25 8 -25 c7 -23 9 -23 13 -5 7 28 23 36 57 29 19 -4 26 -3 22 4 -8 13 24 32
53 32 12 0 21 -4 21 -10 0 -5 -11 -10 -25 -10 -26 0 -34 -14 -12 -24 9 -5 9
-7 0 -12 -8 -4 -8 -14 3 -41 16 -37 10 -61 -7 -30 -13 23 -25 22 -25 -3 0 -28
44 -39 62 -16 13 18 8 46 -9 57 -4 3 0 21 11 38 11 18 22 29 25 24 3 -5 2 -15
-4 -23 -13 -22 -11 -30 7 -30 13 0 14 -3 4 -15 -6 -8 -9 -19 -5 -25 4 -6 1
-17 -5 -25 -7 -8 -9 -15 -5 -15 4 0 2 -7 -5 -15 -16 -19 -5 -34 12 -17 15 15
32 16 23 2 -3 -5 3 -10 14 -10 14 0 21 -6 21 -19 0 -11 9 -23 20 -26 23 -7 28
-45 6 -45 -8 0 -22 -3 -31 -6 -14 -6 -16 -1 -10 35 5 37 4 41 -15 41 -14 0
-20 -7 -21 -22 0 -22 -1 -22 -9 -3 -8 18 -9 17 -9 -7 -1 -14 -7 -29 -13 -32
-7 -3 -2 -4 12 -3 21 2 25 -2 23 -20 -2 -17 2 -23 17 -23 12 0 23 -7 26 -15 9
-24 22 -18 26 12 2 14 8 28 15 30 16 6 9 -52 -8 -73 -10 -12 -9 -16 8 -20 11
-3 26 -17 32 -31 11 -25 12 -25 26 -7 20 27 18 34 -10 34 -21 0 -25 5 -25 28
0 27 15 52 32 52 4 0 5 -13 2 -30 -5 -24 -3 -30 11 -30 11 0 15 5 12 14 -4 10
-1 13 8 10 11 -5 12 -10 2 -25 -15 -25 2 -54 32 -53 11 0 21 -4 21 -9 0 -5
-13 -7 -30 -3 -28 5 -30 3 -30 -24 0 -17 5 -30 11 -30 6 0 9 7 6 15 -4 8 -2
17 3 20 6 4 10 -5 10 -18 0 -13 3 -27 8 -31 4 -4 7 -18 7 -29 0 -12 5 -24 10
-25 6 -2 16 -9 24 -15 12 -10 12 -9 0 11 -15 24 -5 52 22 60 10 4 10 0 -3 -14
-16 -18 -15 -20 7 -42 28 -27 31 -27 39 1 6 20 7 20 17 5 6 -11 22 -18 39 -18
41 0 49 -20 8 -21 -31 -1 -32 -1 -8 -9 14 -4 19 -8 13 -9 -21 -2 -14 -32 13
-57 14 -13 29 -24 35 -24 14 0 11 -17 -5 -23 -8 -3 -17 -19 -21 -36 -6 -28
-32 -59 -44 -53 -3 2 -7 -3 -9 -10 -2 -9 11 -13 41 -13 36 0 41 2 30 13 -14
15 -18 52 -5 52 5 0 14 -11 22 -24 13 -26 49 -41 63 -27 5 5 -5 13 -22 19 -24
8 -31 17 -31 36 0 26 19 38 21 14 0 -7 5 -4 10 7 7 16 8 13 4 -12 -4 -31 -2
-33 23 -33 21 0 28 -5 28 -20 0 -11 -3 -20 -7 -20 -3 0 -4 -11 -1 -25 2 -14
-2 -33 -9 -42 -11 -13 -11 -17 -1 -20 19 -7 15 -80 -5 -87 -12 -5 -13 -10 -5
-18 8 -8 15 -8 26 1 12 10 17 9 25 -7 10 -18 8 -20 -18 -16 -41 7 -48 -13 -9
-22 32 -7 33 -8 8 -15 -21 -6 -22 -7 -5 -8 22 -1 50 26 58 56 3 10 5 -6 6 -35
0 -30 5 -51 10 -47 5 3 13 1 16 -5 4 -6 16 -8 28 -4 30 9 32 11 18 28 -9 10
-8 15 2 19 19 7 19 -33 0 -62 -15 -23 -15 -24 9 -18 18 5 30 1 44 -14 19 -21
19 -22 -3 -15 -26 8 -51 -27 -35 -47 6 -7 12 -30 14 -52 3 -30 8 -39 20 -37
13 2 16 -5 13 -32 -2 -25 1 -36 12 -38 11 -2 10 -8 -7 -26 -12 -12 -19 -28
-17 -35 4 -9 6 -9 6 1 2 26 31 12 32 -15 0 -16 3 -22 6 -15 2 6 11 12 19 12 8
0 14 5 14 11 0 5 5 7 12 3 7 -5 25 -7 40 -6 15 1 28 -2 28 -8 0 -5 -11 -10
-24 -10 -13 0 -27 -6 -29 -12 -4 -10 -8 -9 -16 2 -8 12 -10 11 -8 -8 0 -12 6
-22 12 -22 6 0 18 -9 28 -20 18 -21 37 -26 37 -10 0 16 37 11 44 -6 9 -23 8
-24 -14 -24 -11 0 -20 -4 -20 -10 0 -13 27 -13 35 -1 3 6 20 4 41 -5 20 -8 38
-13 41 -10 9 9 -6 38 -17 31 -5 -3 -10 -1 -10 4 0 12 40 15 41 4 5 -54 17 -65
25 -23 5 22 9 28 15 19 4 -8 4 -34 -1 -58 -4 -25 -6 -50 -3 -57 6 -15 -13 -28
-22 -14 -11 17 -25 11 -25 -11 0 -11 4 -17 10 -14 6 4 17 1 25 -5 11 -9 15 -9
15 -1 0 26 18 8 24 -25 7 -37 -7 -69 -26 -58 -6 4 -6 10 1 17 17 17 13 44 -8
50 -16 4 -19 0 -18 -21 1 -15 -4 -27 -13 -29 -12 -4 -12 -3 -1 5 21 15 -2 22
-28 7 l-24 -12 32 -24 c33 -25 40 -39 17 -39 -8 0 -18 -5 -22 -12 -5 -8 4 -10
33 -6 38 5 40 5 35 -19 -4 -19 -1 -24 9 -21 16 5 20 47 6 65 -5 7 -6 17 -2 23
9 14 32 13 38 -2 3 -8 6 -6 6 5 1 9 6 17 12 17 7 0 9 -10 6 -26 -2 -15 2 -31
10 -40 9 -8 12 -22 8 -32 -5 -14 -10 -11 -24 17 -17 33 -18 33 -24 10 -4 -14
-1 -26 6 -31 9 -5 6 -11 -8 -22 -25 -18 -14 -31 14 -16 13 6 21 7 21 1 0 -5
10 -11 22 -13 21 -3 23 -9 24 -75 1 -54 -2 -73 -11 -73 -8 0 -11 -8 -8 -21 4
-14 9 -17 16 -10 6 6 15 11 19 11 8 0 5 -51 -5 -67 -3 -5 3 -17 14 -26 23 -20
24 -31 3 -51 -20 -20 -10 -52 19 -61 l22 -8 -23 -4 c-13 -3 -19 -9 -16 -15 4
-7 2 -8 -4 -4 -6 4 -9 13 -6 20 3 8 1 17 -4 20 -15 9 -23 -51 -10 -79 12 -26
14 -27 61 -27 15 -1 27 -5 27 -10 0 -6 -7 -8 -15 -4 -19 7 -19 -4 -2 -29 17
-22 37 -12 30 15 -3 11 0 20 6 20 6 0 11 -16 11 -36 0 -31 -3 -36 -19 -31 -10
2 -25 1 -32 -4 -11 -7 -11 -9 -1 -9 7 0 11 -4 8 -8 -3 -5 4 -16 15 -25 24 -21
33 -22 25 -2 -10 27 33 17 46 -10 10 -22 13 -23 20 -10 5 8 14 13 19 9 5 -3
19 5 30 18 l20 23 -6 -32 c-5 -24 -2 -34 12 -43 16 -10 16 -10 -3 -5 -16 4
-23 0 -27 -16 -5 -17 -2 -20 14 -16 20 5 27 -9 7 -15 -17 -6 -21 -48 -4 -48
19 0 30 17 16 23 -6 3 -5 4 2 3 7 -2 13 -11 13 -22 0 -16 -8 -20 -50 -22 -80
-5 -71 -17 12 -17 52 0 78 -4 81 -12 2 -9 -7 -13 -26 -13 -17 0 -33 6 -35 13
-3 7 -6 5 -6 -5 -1 -21 -12 -23 -29 -6 -9 9 -12 6 -12 -16 0 -17 4 -25 11 -20
6 3 15 0 20 -7 6 -10 9 -8 9 9 0 12 5 22 11 22 5 0 9 -10 7 -22 -2 -17 1 -22
15 -20 10 2 17 -3 17 -14 0 -12 7 -15 30 -12 17 3 30 1 30 -3 0 -4 -16 -9 -35
-11 l-36 -3 31 -34 c24 -26 28 -36 18 -42 -10 -6 -10 -13 -2 -26 14 -22 41
-29 47 -11 2 7 2 4 0 -7 -3 -11 -5 -26 -5 -32 -1 -7 -7 -13 -15 -13 -7 0 -13
-4 -13 -10 0 -5 4 -10 10 -10 11 0 1 -32 -14 -42 -6 -4 13 -6 42 -4 44 4 52 2
52 -12 0 -11 3 -13 8 -6 8 13 61 25 110 27 21 0 37 -6 47 -19 21 -27 18 -36
-7 -29 -20 5 -21 4 -7 -7 23 -19 34 -59 19 -68 -9 -5 -9 -9 -1 -14 6 -4 11 -2
11 3 0 6 5 11 10 11 14 0 12 -27 -2 -34 -7 -2 -4 -4 7 -4 44 2 55 -2 55 -23 0
-12 8 -23 19 -26 11 -3 22 -12 24 -22 4 -14 5 -14 6 2 1 24 31 22 31 -3 0 -11
5 -20 10 -20 6 0 10 9 10 20 0 22 7 25 30 10 13 -9 13 -10 0 -10 -9 -1 -6 -5
8 -10 16 -7 22 -18 22 -40 0 -32 9 -36 41 -20 11 6 25 8 31 4 8 -5 5 -10 -8
-15 -15 -6 -12 -8 14 -8 30 -1 32 -3 32 -38 0 -41 19 -86 20 -48 0 11 7 31 15
45 l15 25 6 -22 c8 -28 24 -30 24 -4 0 14 5 18 20 14 11 -3 20 -13 20 -23 0
-13 6 -17 19 -13 17 4 19 0 17 -23 -2 -15 -12 -34 -22 -42 -18 -13 -17 -14 9
-9 27 4 28 3 25 -31 l-3 -36 43 3 c44 3 59 -14 20 -22 -19 -4 -18 -4 5 -6 16
0 26 -5 23 -10 -3 -4 7 -6 22 -4 26 4 26 4 8 -11 -11 -9 -16 -19 -13 -23 4 -3
17 3 30 14 16 14 29 18 47 13 l25 -7 -28 -12 c-16 -6 -27 -16 -25 -23 6 -18
28 -22 28 -5 0 18 57 29 82 16 30 -16 50 -11 43 11 -4 11 -2 20 4 20 17 0 33
-73 18 -83 -7 -5 7 -6 33 -2 32 4 41 3 30 -4 -26 -18 -4 -22 35 -6 42 18 46
16 49 -18 0 -15 6 -23 14 -20 9 4 10 9 2 18 -8 10 -8 15 1 21 7 4 15 2 17 -4
7 -21 49 -14 55 9 4 16 3 18 -8 9 -9 -8 -14 -7 -18 4 -9 22 34 28 54 7 22 -24
20 -83 -3 -75 -11 3 -8 -4 10 -24 23 -25 28 -27 34 -13 5 12 7 11 7 -6 1 -13
7 -23 16 -23 8 0 14 8 12 18 -1 9 3 19 8 22 6 3 10 -7 11 -23 2 -45 23 -52 27
-8 1 11 5 21 8 21 4 0 5 -16 2 -37 -4 -26 -3 -34 6 -29 6 4 9 12 6 17 -4 5 1
9 10 9 9 0 14 -4 11 -9 -10 -15 22 -6 42 12 28 25 45 22 38 -8 -5 -18 -3 -23
7 -19 15 5 11 54 -3 54 -4 0 -10 11 -12 25 -5 22 -2 25 23 25 16 0 29 3 29 8
0 4 7 15 14 25 17 21 66 14 66 -10 0 -12 -3 -13 -14 -4 -12 10 -20 9 -40 -4
-14 -10 -23 -21 -20 -26 3 -5 -5 -13 -18 -18 -15 -7 -18 -10 -7 -10 18 -1 33
-27 23 -42 -3 -5 5 -9 17 -9 18 0 20 2 9 15 -9 11 -10 19 -2 27 13 13 32 2 32
-18 0 -8 5 -14 10 -14 6 0 10 4 10 9 0 5 10 6 23 3 20 -5 20 -6 -8 -14 -33 -8
-61 -43 -44 -54 6 -3 13 4 16 17 6 22 7 22 14 3 7 -18 8 -18 15 4 7 24 24 28
42 10 9 -9 13 -7 18 6 4 11 0 22 -12 31 -16 12 -17 14 -3 15 11 0 19 12 23 35
5 23 13 35 23 35 15 0 15 -1 0 -18 -15 -16 -15 -19 3 -30 27 -16 60 -15 60 2
0 8 -6 17 -12 19 -8 4 -7 6 4 6 9 1 18 7 21 14 3 9 7 9 19 -1 13 -10 17 -10
22 4 3 8 6 25 7 37 1 20 2 20 9 -3 14 -44 11 -60 -10 -60 -11 0 -20 -4 -20
-10 0 -13 3 -13 35 2 17 8 24 17 20 29 -7 23 15 36 29 18 11 -15 30 -19 40 -8
4 3 0 12 -9 19 -22 18 -18 30 10 30 22 0 25 -3 19 -25 -4 -15 -2 -25 5 -25 6
0 11 7 11 15 0 9 6 15 13 14 27 -3 39 2 34 15 -4 9 4 13 26 14 22 1 27 -2 17
-8 -10 -6 -4 -8 18 -8 22 1 29 4 20 9 -7 5 -11 9 -8 10 3 0 15 2 27 5 12 2 25
-1 28 -6 3 -6 11 -10 16 -10 6 0 7 5 4 11 -4 6 2 13 14 16 12 3 21 9 21 14 0
15 57 10 70 -6 7 -8 19 -15 26 -15 8 0 14 -5 14 -11 0 -6 7 -3 16 6 9 9 24 13
35 10 20 -7 27 9 9 20 -18 11 -10 26 13 25 46 -4 59 0 53 15 -3 9 0 15 10 15
10 0 14 6 11 14 -5 12 -1 13 15 7 27 -10 36 -31 13 -31 -9 0 -13 -4 -10 -10
10 -15 35 -12 35 5 0 8 5 15 10 15 6 0 10 -7 10 -15 0 -27 17 -16 24 16 6 33
25 31 27 -4 1 -16 3 -17 6 -5 5 18 30 31 44 22 5 -3 9 6 9 20 0 20 4 24 18 19
9 -4 20 -11 24 -17 4 -6 8 861 8 1927 l0 1937 -2360 0 c-1423 0 -2360 -4
-2360 -9z"/>
<path d="M4350 10428 c0 -20 -19 -35 -29 -22 -11 16 -58 15 -71 -1 -10 -12
-10 -15 4 -15 21 0 21 -16 0 -24 -23 -9 -24 -8 -24 15 0 12 -5 19 -12 16 -7
-2 -12 -11 -10 -19 1 -9 -4 -18 -13 -22 -9 -3 -15 0 -15 9 0 8 -4 15 -10 15
-12 0 -13 -20 -1 -39 5 -8 14 -10 21 -6 8 5 11 3 8 -6 -8 -24 -38 -23 -38 1 0
12 -4 18 -10 15 -5 -3 -10 -1 -10 4 0 6 -13 11 -30 11 -23 0 -30 4 -30 20 0
12 -7 20 -16 20 -12 0 -15 -6 -10 -24 7 -30 -1 -38 -26 -25 -13 7 -18 18 -15
30 3 12 0 19 -9 19 -8 0 -13 -9 -11 -22 2 -20 -4 -24 -43 -29 l-45 -5 40 -5
c38 -5 37 -6 -13 -7 -41 -2 -56 2 -69 18 -10 11 -23 20 -30 20 -7 0 -13 5 -13
10 0 6 5 10 10 10 6 0 10 5 10 11 0 8 -5 8 -15 -1 -8 -7 -15 -9 -15 -6 0 4 -6
1 -14 -6 -8 -7 -12 -16 -9 -20 2 -5 -3 -8 -11 -8 -8 0 -20 9 -26 20 -6 11 -15
20 -19 20 -5 0 -7 -9 -4 -20 4 -17 0 -20 -24 -20 -16 0 -34 5 -41 12 -9 9 -12
9 -12 0 0 -6 -17 -20 -37 -31 -21 -10 -51 -37 -68 -60 -16 -22 -34 -41 -38
-41 -5 0 -6 -4 -2 -9 7 -12 -17 -91 -28 -91 -4 0 -12 -12 -18 -27 -7 -19 -13
-23 -18 -15 -4 7 -15 10 -23 7 -12 -5 -14 -16 -11 -49 4 -29 1 -46 -8 -51 -9
-6 -11 -4 -6 8 4 11 1 17 -9 17 -11 0 -14 -7 -10 -22 3 -13 3 -17 0 -10 -8 17
-24 15 -24 -3 0 -8 5 -15 10 -15 6 0 10 -6 10 -14 0 -8 6 -17 13 -19 6 -3 2
-6 -10 -6 -20 -1 -41 30 -35 52 1 4 -5 7 -13 7 -17 0 -69 -50 -60 -58 3 -4 10
0 15 8 10 17 25 6 25 -18 0 -28 -19 -33 -38 -9 -13 16 -20 18 -24 9 -4 -11 -9
-10 -26 1 -12 8 -33 17 -47 20 -38 9 -131 -18 -152 -45 -26 -34 -22 -43 6 -14
33 37 39 32 14 -10 -18 -31 -19 -40 -9 -56 9 -14 9 -24 2 -31 -5 -5 -7 -23 -4
-38 5 -25 2 -29 -15 -29 -15 0 -20 -5 -16 -15 4 -8 10 -12 15 -9 16 9 10 -2
-16 -32 -14 -16 -37 -51 -51 -78 -14 -28 -38 -62 -53 -77 -15 -14 -36 -47 -47
-73 -14 -35 -23 -46 -36 -42 -20 5 -28 -5 -43 -48 -6 -17 -18 -30 -30 -32 -21
-3 -45 -30 -45 -50 0 -6 -7 -14 -15 -18 -12 -4 -13 -10 -2 -33 6 -15 21 -35
32 -44 19 -16 19 -18 2 -53 -9 -20 -17 -55 -17 -77 0 -24 -4 -38 -10 -34 -6 4
-7 -2 -1 -17 4 -13 11 -42 15 -66 5 -33 3 -44 -9 -48 -20 -8 -45 -56 -45 -86
0 -13 9 -41 19 -62 20 -38 24 -76 8 -76 -5 0 -6 -12 -2 -27 8 -30 11 -45 21
-111 4 -23 11 -45 15 -48 5 -3 9 -14 9 -24 0 -10 9 -22 20 -25 11 -3 20 -13
20 -21 0 -9 -5 -12 -11 -8 -6 3 -3 -5 6 -20 10 -14 21 -26 26 -26 5 0 9 -4 9
-10 0 -6 -9 -6 -26 0 -31 12 -44 6 -44 -21 0 -10 -6 -19 -12 -19 -8 -1 -6 -6
5 -14 17 -13 17 -14 0 -20 -15 -6 -15 -8 -3 -16 13 -8 12 -10 -3 -10 -10 0
-26 4 -36 9 -9 6 -23 6 -31 1 -18 -11 40 -61 84 -73 17 -5 42 -17 56 -27 32
-22 75 -36 66 -21 -4 6 -3 11 3 11 5 0 10 -8 10 -17 0 -34 11 -86 20 -97 5 -6
15 -30 21 -53 7 -23 17 -40 21 -37 11 7 28 -29 25 -52 -2 -10 -10 -18 -19 -18
-9 1 -13 -4 -10 -12 3 -8 13 -14 23 -14 22 0 37 -17 44 -53 3 -15 8 -39 11
-53 4 -15 9 -24 12 -21 3 4 14 -4 25 -16 15 -16 18 -18 14 -5 -10 32 40 -1 58
-38 20 -42 20 -45 1 -38 -19 8 -9 -22 16 -47 10 -10 21 -35 24 -56 4 -21 22
-63 41 -95 19 -31 34 -62 34 -70 0 -7 7 -22 15 -32 8 -11 15 -38 15 -60 0 -73
12 -146 24 -146 9 0 9 21 -1 83 -15 92 -22 244 -27 612 -2 142 -9 269 -15 295
-6 25 -17 68 -23 95 -15 62 -14 348 1 353 5 2 8 9 5 17 -3 7 -1 16 5 20 6 3
11 13 11 22 0 8 9 28 20 43 11 16 23 43 26 62 4 18 10 38 14 43 4 6 12 33 19
60 19 77 29 95 50 95 30 0 34 -15 15 -68 -20 -56 -15 -88 22 -131 24 -29 53
-44 38 -19 -4 7 -3 8 5 4 6 -4 9 -11 6 -16 -9 -15 81 -34 119 -24 36 9 23 19
-22 17 l-37 -2 35 8 c19 5 44 12 54 16 14 6 17 5 12 -3 -11 -19 30 -9 54 13
11 10 20 24 20 31 0 39 49 12 50 -27 0 -15 6 -16 42 -8 42 10 94 56 147 130
14 19 30 38 37 42 10 6 11 14 3 35 -6 15 -10 28 -10 30 6 19 -53 29 -65 11 -6
-11 -44 56 -44 79 0 7 5 12 12 10 6 -2 30 5 52 17 l41 22 48 -40 c54 -45 121
-67 204 -67 50 0 76 -12 51 -24 -10 -5 -10 -7 0 -12 6 -3 12 -12 12 -19 0 -8
15 -17 35 -21 19 -3 35 -10 35 -16 0 -5 4 -7 8 -4 5 3 36 -21 68 -53 43 -42
70 -60 97 -65 31 -6 37 -11 32 -25 -5 -16 0 -18 29 -16 26 3 36 -1 39 -13 3
-12 5 -10 6 6 1 22 15 30 25 13 3 -5 20 -8 36 -7 25 2 33 -3 45 -27 18 -37 19
-35 -2 -33 -10 0 -17 -5 -15 -11 1 -7 -3 -13 -9 -13 -5 0 -7 -5 -3 -11 4 -6
19 -9 38 -5 22 4 27 3 16 -4 -13 -9 -13 -11 0 -20 8 -5 21 -10 28 -10 6 0 12
-4 12 -10 0 -5 6 -10 14 -10 14 0 30 -29 21 -38 -3 -3 -5 -2 -5 3 0 4 -7 2
-15 -5 -12 -10 -15 -10 -15 4 0 9 -4 16 -10 16 -5 0 -10 -9 -10 -20 0 -11 5
-20 12 -20 7 0 22 -12 35 -27 19 -23 24 -26 32 -13 6 8 13 12 16 9 10 -10 -6
-39 -22 -39 -8 0 -11 -5 -7 -11 11 -19 6 -71 -8 -81 -9 -6 -6 -7 8 -3 24 6 54
-3 54 -17 0 -5 -4 -6 -10 -3 -5 3 -10 -1 -10 -9 0 -9 7 -16 16 -16 8 0 13 -4
9 -10 -3 -5 -12 -7 -19 -4 -7 3 -19 -2 -26 -10 -7 -9 -16 -14 -20 -11 -5 3
-11 1 -15 -5 -9 -15 -25 -12 -25 5 0 8 -4 15 -10 15 -5 0 -10 -5 -10 -10 0 -7
-16 -9 -39 -6 -27 3 -41 0 -45 -9 -3 -8 0 -16 7 -18 7 -2 9 -8 5 -12 -4 -4
-14 -2 -23 5 -9 7 -22 9 -32 5 -10 -5 -21 -7 -25 -7 -5 1 -8 -14 -8 -33 0 -29
-4 -36 -25 -41 -28 -7 -33 -22 -9 -31 13 -5 13 -7 2 -15 -10 -7 -10 -10 5 -19
17 -10 24 -30 10 -28 -23 4 -24 -4 -4 -25 22 -24 17 -27 -21 -13 -51 19 -53
19 -35 -1 24 -27 21 -35 -10 -28 -21 5 -24 4 -13 -4 8 -5 10 -10 4 -10 -6 0
-10 -12 -8 -26 1 -15 -2 -24 -9 -21 -16 5 -47 -36 -47 -62 0 -12 -5 -21 -10
-21 -14 0 -30 -43 -20 -55 4 -5 6 -20 4 -31 -2 -12 6 -34 17 -48 14 -18 22
-45 24 -83 2 -31 9 -59 15 -63 7 -4 11 -40 11 -96 -1 -49 -1 -99 -1 -112 0
-12 7 -25 15 -29 12 -4 15 -16 12 -44 -2 -22 0 -39 5 -39 5 0 6 -5 3 -10 -4
-6 -2 -16 3 -23 5 -7 12 -34 16 -61 3 -27 12 -57 19 -65 7 -9 19 -38 26 -66
15 -59 30 -82 42 -63 9 14 13 -6 10 -49 -1 -12 6 -26 16 -31 17 -10 17 -11 1
-17 -10 -4 -18 -13 -18 -20 0 -6 -9 -20 -19 -29 -11 -10 -23 -31 -26 -48 -4
-16 -15 -34 -25 -40 -9 -6 -15 -18 -13 -27 2 -9 -5 -26 -17 -39 -14 -14 -20
-33 -18 -50 3 -25 0 -27 -35 -30 -27 -2 -62 8 -128 38 -50 23 -91 40 -92 39
-2 -2 -8 -11 -15 -20 -9 -13 -9 -16 3 -16 8 0 12 4 9 9 -3 4 2 5 10 2 20 -8
21 -7 -14 -32 -25 -19 -29 -20 -24 -5 3 10 -2 6 -11 -9 -8 -16 -20 -28 -25
-28 -6 0 -10 -9 -10 -19 0 -11 -7 -26 -15 -35 -8 -8 -15 -21 -15 -29 0 -11 -7
-13 -22 -9 -18 5 -19 7 -6 10 15 3 34 49 25 59 -3 2 -7 -6 -10 -19 -7 -28 -77
-56 -77 -30 0 21 -27 -3 -46 -41 -9 -16 -18 -26 -21 -23 -3 3 0 12 7 21 24 29
-9 15 -40 -17 -27 -28 -31 -30 -25 -11 5 18 3 22 -9 17 -8 -3 -18 -20 -22 -37
-7 -34 -30 -67 -47 -67 -5 0 -7 19 -5 44 5 38 3 44 -11 39 -14 -5 -14 -4 1 8
9 8 19 27 22 42 5 29 22 56 43 70 16 10 87 136 90 161 2 10 9 30 17 45 28 56
51 105 51 110 1 3 4 16 9 28 19 56 -18 48 -87 -19 -62 -60 -73 -68 -85 -68 -7
0 -12 -7 -12 -16 0 -8 -11 -30 -25 -48 -14 -18 -25 -38 -25 -44 0 -7 -5 -12
-11 -12 -7 0 -9 -10 -7 -25 4 -17 1 -25 -8 -25 -8 0 -14 -11 -14 -25 0 -14 -9
-30 -20 -37 -11 -7 -20 -19 -20 -26 0 -7 -7 -24 -16 -37 -9 -14 -12 -29 -8
-37 5 -7 7 -21 6 -30 -5 -28 16 -58 35 -51 12 5 15 2 10 -9 -3 -9 3 -25 13
-36 14 -14 16 -22 7 -25 -9 -3 -7 -10 6 -24 9 -11 17 -35 17 -54 0 -19 4 -29
8 -24 4 6 14 10 22 9 22 -1 68 -23 51 -23 -8 -1 -12 -4 -9 -7 4 -3 16 -1 27 6
18 9 21 8 21 -10 0 -13 4 -18 11 -15 6 4 8 13 5 21 -10 26 5 42 40 42 19 0 36
-4 39 -8 3 -5 21 -7 40 -5 24 2 46 -4 70 -21 19 -12 52 -24 72 -26 l38 -3 3
53 c3 47 5 52 23 47 11 -4 19 -2 19 4 0 15 56 14 81 -1 17 -10 23 -10 26 0 6
17 64 15 87 -3 17 -13 22 -13 35 -1 18 16 145 24 174 11 11 -5 23 -1 35 13 17
20 90 52 118 52 9 0 29 -14 45 -31 26 -27 29 -29 29 -11 0 53 40 71 75 32 18
-20 25 -76 11 -98 -9 -15 -48 -16 -64 0 -9 9 -12 5 -12 -20 0 -20 -9 -41 -22
-54 -21 -21 -33 -48 -21 -48 3 0 16 9 30 20 14 11 31 20 39 20 7 0 27 12 44
26 17 15 34 24 37 20 8 -8 -17 -36 -32 -36 -7 0 -18 -6 -24 -14 -7 -8 -37 -26
-67 -41 -53 -26 -83 -63 -68 -86 3 -5 1 -9 -4 -9 -4 0 -18 -9 -30 -20 -21 -20
-21 -20 -36 1 -14 20 -15 20 -50 4 -37 -18 -44 -29 -25 -41 6 -3 8 -16 5 -29
-6 -24 18 -43 29 -24 4 5 13 3 22 -6 8 -9 14 -17 12 -18 -20 -14 -67 -27 -95
-27 -19 0 -51 -7 -71 -15 -19 -8 -46 -15 -59 -15 -19 0 -24 -5 -24 -25 0 -23
10 -30 33 -26 5 1 11 -7 14 -18 7 -29 70 -46 101 -27 6 4 12 3 12 -3 0 -5 12
-8 27 -6 14 1 38 -1 52 -5 18 -5 31 -3 40 7 11 12 15 12 25 -3 9 -12 22 -15
44 -12 17 2 29 1 26 -4 -3 -4 0 -8 5 -8 6 0 11 -7 11 -15 0 -11 14 -15 58 -17
106 -2 127 -4 150 -12 20 -7 22 -12 16 -39 -9 -43 -12 -47 -35 -47 -10 0 -19
-7 -19 -15 0 -8 4 -15 10 -15 5 0 9 -6 7 -12 -1 -7 8 -14 21 -16 23 -4 31 13
10 21 -10 4 -10 6 -1 6 6 1 14 -3 17 -8 9 -15 -5 -43 -19 -37 -19 7 -26 -4
-15 -23 5 -10 5 -23 -1 -32 -7 -11 -9 -10 -9 6 0 15 -2 17 -9 6 -5 -7 -14 -10
-20 -7 -6 4 -11 2 -11 -3 0 -6 -7 -11 -16 -11 -11 0 -14 -6 -9 -20 7 -22 -6
-26 -36 -10 -16 9 -19 7 -19 -10 0 -14 -4 -19 -12 -14 -9 5 -8 2 1 -9 8 -10
11 -20 7 -24 -3 -3 -6 -1 -6 5 0 7 -7 9 -17 5 -12 -5 -15 -2 -10 10 9 24 -7
65 -18 47 -5 -9 -4 -15 3 -18 7 -2 12 -8 12 -13 0 -4 -6 -6 -14 -3 -11 4 -13
0 -9 -18 4 -18 3 -20 -6 -8 -9 13 -11 12 -11 -5 0 -15 -3 -17 -9 -7 -4 8 -12
14 -17 14 -5 -1 -14 16 -20 36 -12 37 -12 37 -13 7 -1 -20 -4 -26 -10 -17 -7
11 -9 11 -14 -2 -4 -9 -11 -16 -18 -16 -9 0 -35 -25 -78 -76 -16 -19 -35 -18
-27 1 16 41 15 47 -3 15 -11 -19 -20 -29 -21 -22 0 6 -5 12 -11 12 -7 0 -9 -9
-6 -22 6 -23 6 -23 -12 1 l-19 24 -7 -23 c-5 -16 -9 -19 -15 -10 -4 7 -12 10
-18 6 -6 -3 -13 0 -15 6 -3 7 -6 2 -7 -12 0 -21 -2 -23 -13 -10 -7 9 -20 14
-29 12 -10 -2 -18 1 -18 7 0 6 -6 10 -12 8 -7 -1 -13 5 -13 13 0 8 -4 18 -9
22 -6 4 -4 14 5 25 13 16 13 17 -3 4 -10 -7 -18 -20 -18 -27 0 -8 -7 -14 -16
-14 -8 0 -12 5 -9 10 3 6 1 10 -4 10 -6 0 -11 -8 -12 -17 -1 -13 -4 -10 -10 7
-7 19 -8 15 -5 -20 4 -43 4 -44 -9 -20 -8 14 -14 33 -15 42 0 11 -5 15 -14 12
-7 -3 -16 2 -19 10 -4 9 -14 16 -23 16 -14 0 -15 2 -3 17 12 14 12 16 0 12
-13 -5 -51 23 -51 37 0 3 -10 15 -22 26 -13 11 -18 17 -11 14 6 -4 15 -2 18 4
4 6 3 9 -2 8 -15 -4 -55 23 -50 35 5 17 -30 50 -37 34 -2 -7 -5 -2 -5 10 -1
16 -6 21 -16 17 -16 -7 -45 12 -45 28 0 5 3 7 8 5 4 -3 8 6 8 19 1 13 -2 24
-6 24 -4 0 -11 7 -14 16 -4 12 -2 15 9 11 8 -4 17 -2 20 3 4 6 1 10 -5 10 -7
0 -10 6 -7 13 5 15 -18 39 -28 29 -4 -4 -6 5 -3 20 3 15 1 25 -3 22 -5 -3 -9
4 -9 15 0 11 -4 22 -10 26 -5 3 -7 12 -3 20 3 9 -1 15 -11 15 -10 0 -16 8 -16
22 0 12 -3 18 -7 15 -13 -13 -3 -80 14 -100 10 -11 13 -17 7 -14 -13 8 -24
-14 -24 -46 0 -22 1 -21 21 3 14 16 19 19 15 8 -3 -10 -1 -18 5 -18 17 0 -1
-90 -22 -111 -11 -11 -20 -16 -21 -11 -9 47 -20 72 -30 66 -5 -3 -7 -12 -5
-18 3 -7 -1 -13 -8 -13 -7 0 -11 7 -10 16 2 9 4 19 4 24 1 4 19 7 41 7 22 0
40 4 40 10 0 5 -6 7 -13 4 -7 -2 -39 5 -72 16 -33 12 -69 23 -80 24 -11 2 -23
4 -27 5 -4 0 -6 10 -5 20 1 22 17 18 17 -5 0 -8 5 -14 10 -14 11 0 13 30 4 54
-3 8 -11 13 -18 10 -7 -3 -19 3 -27 12 -8 10 -9 15 -3 11 7 -4 14 2 17 13 3
11 1 18 -4 14 -5 -3 -9 3 -9 12 0 10 -3 14 -7 11 -10 -11 -32 13 -26 29 3 8
-2 23 -11 33 -10 11 -16 25 -15 33 3 26 -1 39 -11 33 -6 -4 -8 -12 -4 -18 3
-7 -3 -1 -15 13 -16 20 -17 26 -6 30 11 4 5 23 -27 85 -22 44 -50 93 -61 108
-11 16 -35 59 -54 95 -27 53 -33 60 -29 34 3 -18 13 -40 21 -48 8 -9 15 -31
15 -50 0 -19 3 -34 8 -34 4 0 8 -12 9 -27 7 -81 10 -103 16 -109 4 -4 7 2 7
14 0 30 14 28 28 -3 16 -35 16 -36 -15 -29 -28 7 -28 10 -6 -58 11 -37 -23
-16 -57 33 -29 43 -35 61 -35 105 0 29 -4 56 -8 60 -4 4 -7 -8 -7 -26 0 -18
-3 -30 -7 -27 -5 6 -8 17 -12 60 -1 5 -5 5 -11 2 -10 -6 -13 12 -13 73 0 17
-4 32 -9 32 -5 0 -6 -6 -2 -12 4 -7 3 -10 -1 -5 -12 11 -37 78 -39 105 0 12
-4 22 -8 22 -4 0 -14 25 -22 54 -21 70 -35 80 -25 18 4 -26 5 -50 2 -54 -2 -5
0 -8 5 -8 10 0 22 -42 28 -97 2 -21 -1 -33 -9 -33 -12 0 -25 -20 -47 -72 -7
-16 -16 -28 -22 -28 -5 0 -7 -4 -3 -9 3 -5 1 -12 -5 -16 -5 -3 -10 -17 -10
-31 0 -14 -7 -27 -15 -30 -8 -4 -15 -14 -15 -24 0 -11 -4 -22 -10 -25 -5 -3
-10 -26 -10 -50 0 -24 -5 -47 -11 -51 -6 -3 -9 -15 -6 -25 4 -13 0 -19 -11
-19 -13 0 -14 -2 -4 -8 10 -7 10 -23 1 -83 -6 -41 -16 -77 -23 -81 -7 -5 -7
-8 0 -8 6 0 10 -29 11 -72 1 -113 9 -186 20 -200 5 -7 11 -30 12 -51 1 -20 6
-59 12 -85 6 -26 11 -55 12 -64 1 -10 4 -18 7 -18 3 0 6 -14 7 -31 1 -17 8
-38 15 -47 7 -8 12 -23 10 -34 -2 -10 2 -18 8 -18 6 0 8 -5 5 -10 -3 -6 1 -13
9 -16 10 -4 16 -18 16 -35 0 -17 14 -50 35 -79 19 -27 35 -57 35 -65 0 -8 4
-15 9 -15 5 0 32 -34 60 -75 29 -41 49 -75 45 -75 -4 0 5 -10 19 -23 15 -12
27 -26 27 -31 0 -15 30 -37 41 -30 9 5 10 0 6 -15 -3 -14 0 -24 9 -28 8 -3 14
-11 14 -17 0 -7 11 -19 25 -26 14 -7 25 -19 25 -26 0 -14 108 -124 121 -124 4
0 10 -11 13 -25 4 -14 11 -25 16 -25 5 0 30 -21 56 -48 26 -26 51 -47 57 -47
5 0 15 -9 21 -20 13 -24 87 -95 98 -95 4 0 8 -6 8 -13 0 -8 11 -20 25 -27 14
-7 25 -17 25 -22 0 -5 27 -35 59 -66 56 -55 60 -57 64 -34 3 14 -1 26 -9 29
-8 3 -14 14 -14 25 0 11 5 16 10 13 6 -4 18 -1 27 7 15 11 16 11 10 -4 -3 -10
-1 -20 4 -24 6 -3 8 -18 4 -33 -4 -14 -3 -23 1 -19 4 4 13 3 19 -2 9 -7 27 -7
56 -1 24 5 87 13 139 16 52 4 98 9 102 12 5 2 110 3 235 3 126 -1 233 -2 238
-1 59 3 220 1 299 -4 68 -4 103 -2 112 6 12 9 13 9 9 -3 -5 -11 3 -15 34 -16
39 -2 44 2 208 166 198 199 255 261 247 273 -3 5 1 9 9 9 8 0 22 10 30 23 9
12 56 64 106 116 50 52 88 98 85 102 -2 4 2 11 10 16 15 9 143 171 191 243 17
25 47 67 67 95 21 27 38 55 38 62 0 6 3 13 8 15 4 2 21 25 39 52 l32 50 -20
27 c-10 15 -19 38 -19 51 0 13 -11 40 -25 58 -14 19 -21 36 -15 38 15 5 13 17
-12 68 -16 36 -19 50 -10 64 8 13 7 22 -3 37 -11 16 -10 20 10 29 18 9 22 8
21 -5 -1 -11 9 -17 29 -19 17 -2 36 -9 43 -14 7 -6 15 -8 19 -4 3 3 1 6 -6 6
-7 0 -10 4 -7 9 4 5 1 11 -5 13 -7 2 -7 12 2 30 6 15 16 25 21 22 4 -3 6 -9 3
-14 -3 -4 2 -11 11 -14 13 -5 14 -9 4 -21 -11 -13 -9 -19 8 -36 12 -11 22 -24
22 -29 0 -6 7 -10 15 -10 19 0 19 10 -1 39 -16 22 -16 23 3 12 11 -5 28 -22
38 -37 10 -16 20 -22 24 -16 4 7 12 8 21 2 8 -6 18 -10 23 -10 13 0 8 40 -9
68 l-16 27 20 -22 c11 -13 24 -23 29 -23 8 0 81 78 123 132 8 10 25 31 37 46
13 15 23 32 23 38 0 6 9 23 21 38 12 15 22 38 23 51 0 14 4 25 9 25 4 0 7 6 7
13 0 7 24 61 54 118 59 115 70 151 67 221 -1 26 3 49 9 53 16 10 51 -5 43 -18
-12 -20 -14 -47 -3 -47 19 0 23 30 12 83 -11 53 0 87 18 58 7 -12 11 -12 24
-2 13 11 16 11 16 -2 0 -8 -7 -18 -16 -21 -15 -6 -14 -9 5 -25 12 -11 18 -22
13 -25 -5 -3 -12 -15 -15 -27 -4 -16 -2 -19 11 -15 11 4 9 -1 -6 -13 -20 -18
-21 -23 -10 -42 10 -17 10 -23 0 -26 -6 -3 -10 -9 -6 -14 3 -5 0 -9 -6 -9 -6
0 -8 -4 -5 -10 12 -19 14 -50 3 -50 -7 0 -6 -6 2 -15 9 -11 10 -15 0 -15 -8 0
-9 -10 -5 -31 7 -31 6 -31 -20 -25 -23 6 -26 4 -21 -9 3 -9 6 -21 6 -26 0 -6
5 -7 10 -4 6 3 10 1 10 -4 0 -21 3 -26 21 -39 11 -7 19 -19 19 -25 0 -7 -4 -6
-10 3 -7 12 -12 11 -27 -7 -15 -16 -23 -19 -37 -11 -16 9 -17 8 -7 -11 7 -12
8 -21 4 -21 -4 0 -1 -5 7 -10 13 -8 12 -10 -2 -10 -10 0 -18 -6 -18 -13 0 -7
-9 -18 -20 -25 -19 -11 -19 -13 -3 -32 10 -11 23 -20 30 -20 22 0 35 -36 17
-51 -12 -10 -12 -14 -2 -20 9 -6 9 -9 1 -9 -6 0 -15 -15 -18 -32 -4 -18 -13
-37 -19 -41 -7 -5 -4 -7 8 -5 11 2 21 13 23 27 5 35 13 39 13 8 0 -14 -4 -29
-10 -32 -5 -3 -10 -16 -10 -28 0 -12 -9 -28 -20 -35 -11 -7 -20 -23 -20 -37 0
-20 -5 -25 -26 -25 -25 0 -26 -2 -21 -35 4 -26 2 -35 -8 -35 -7 0 -16 6 -18
13 -4 9 -8 8 -16 -3 -6 -9 -7 -18 -1 -24 6 -6 10 -17 9 -26 0 -10 -2 -11 -6
-2 -8 21 -19 13 -42 -33 -12 -25 -27 -42 -32 -39 -6 3 -10 0 -8 -7 4 -32 -2
-50 -22 -67 -11 -9 -27 -32 -34 -49 -8 -18 -19 -33 -24 -33 -6 0 -11 -7 -11
-16 0 -8 -15 -30 -33 -47 -38 -36 -72 -100 -62 -117 3 -5 -1 -13 -9 -16 -9 -3
-13 -10 -10 -15 8 -14 24 -11 24 5 0 8 16 32 35 53 19 21 35 41 35 45 0 5 25
34 56 65 53 55 82 92 129 168 11 17 46 58 77 89 50 49 61 55 78 46 24 -13 26
-26 5 -34 -8 -3 -15 -12 -15 -20 0 -9 10 -4 30 14 16 15 30 33 30 39 0 7 10
15 22 20 14 5 23 17 23 31 0 27 13 34 35 20 13 -9 12 -13 -5 -26 -14 -11 -16
-18 -7 -21 6 -3 12 -9 12 -14 0 -4 -7 -6 -15 -3 -18 7 -19 3 -4 -30 8 -17 9
-30 2 -38 -17 -23 -9 -43 20 -46 27 -3 53 -33 39 -46 -3 -4 1 -4 11 0 9 3 17
16 17 28 0 12 9 27 20 34 11 7 20 19 20 26 0 8 12 23 27 34 l27 20 -24 27
c-14 14 -34 36 -45 47 l-20 20 22 -11 c41 -21 82 -65 79 -86 -2 -11 -9 -20
-16 -20 -7 0 -15 -6 -17 -12 -3 -8 5 -13 19 -13 14 0 35 -12 49 -27 20 -23 20
-25 2 -9 -20 16 -43 15 -43 -3 0 -10 62 -31 91 -30 l24 0 -23 10 c-13 5 -21
13 -17 19 6 9 -28 50 -43 50 -4 0 -8 9 -8 20 0 13 5 19 13 16 8 -3 13 2 13 15
0 11 5 17 10 14 6 -4 8 -15 5 -25 -4 -13 1 -22 15 -30 12 -6 24 -9 28 -6 3 3
0 6 -6 6 -7 0 -12 8 -11 18 0 10 3 12 6 4 2 -6 9 -10 13 -7 5 3 18 -2 30 -12
11 -10 24 -16 28 -14 4 3 9 -8 12 -24 4 -20 13 -31 30 -36 14 -4 20 -7 13 -8
-6 -1 -15 -10 -18 -22 -5 -13 -12 -18 -22 -14 -9 3 -24 -3 -35 -15 -15 -15
-16 -20 -4 -20 8 0 13 -8 11 -17 -1 -10 2 -26 7 -37 7 -13 6 -21 -3 -28 -10
-7 -11 -11 -3 -14 20 -8 -8 -55 -28 -48 -11 3 -19 -2 -23 -16 -3 -11 -12 -20
-18 -20 -8 0 -7 -4 2 -9 22 -14 6 -38 -28 -43 -17 -3 -31 -1 -31 3 0 4 -7 10
-16 13 -17 6 -17 7 3 -63 5 -21 3 -23 -15 -19 -12 4 -22 3 -22 -2 0 -4 -18
-10 -41 -14 -40 -6 -40 -7 -33 -39 12 -53 10 -61 -14 -72 -15 -6 -21 -16 -18
-28 2 -9 0 -14 -5 -11 -5 3 -12 -3 -16 -13 -8 -21 -33 -48 -33 -36 0 4 -5 0
-11 -10 -6 -9 -15 -14 -21 -11 -7 5 -9 0 -6 -14 4 -12 2 -22 -3 -22 -5 0 -9
-7 -9 -16 0 -14 -3 -14 -15 -4 -20 17 -19 1 2 -22 9 -11 11 -18 5 -18 -7 0
-12 5 -12 10 0 6 -4 10 -10 10 -5 0 -10 -9 -10 -19 0 -11 -9 -22 -19 -26 -20
-6 -23 -37 -7 -63 4 -7 1 -12 -8 -12 -9 0 -16 -7 -16 -15 0 -8 -1 -18 -2 -22
-4 -14 -111 -103 -123 -103 -20 0 -157 -46 -190 -64 -16 -9 -36 -16 -42 -16
-7 0 -13 -4 -13 -8 0 -8 -67 -40 -96 -47 -7 -2 -23 -9 -37 -16 -14 -8 -64 -34
-111 -58 -47 -24 -86 -47 -86 -52 0 -4 -15 -11 -32 -14 -18 -4 -35 -10 -38
-14 -7 -9 -84 -42 -90 -39 -3 2 -18 -5 -32 -14 -15 -10 -29 -14 -32 -9 -3 5 4
11 15 14 12 3 18 10 14 16 -3 6 -1 11 4 11 20 0 11 38 -9 43 -19 5 -25 26 -22
70 1 11 -6 32 -15 48 -17 29 -17 31 4 69 26 49 26 129 0 158 -35 38 -72 47
-121 28 -87 -33 -119 -95 -77 -147 l19 -24 12 30 c29 75 46 99 73 106 36 10
61 -14 53 -50 -24 -115 -24 -122 -2 -131 17 -7 18 -9 4 -9 -16 -1 -23 -19 -19
-45 1 -4 -4 -15 -11 -23 -9 -11 -9 -16 2 -23 7 -4 11 -17 8 -28 -3 -10 -1 -27
4 -36 6 -11 6 -22 -3 -32 -10 -12 -9 -13 4 -8 20 7 45 -35 28 -46 -7 -3 -9
-14 -5 -23 3 -10 1 -17 -5 -17 -6 0 -11 5 -11 12 0 6 -3 8 -7 5 -8 -8 -8 -81
0 -93 3 -6 4 -22 3 -37 -2 -15 1 -30 7 -34 7 -4 8 15 5 55 -4 34 -3 61 0 61
15 -2 52 14 52 22 0 13 52 31 61 22 4 -4 9 -19 11 -33 4 -35 23 -51 61 -55 32
-3 33 -1 31 29 -2 17 -1 23 2 14 3 -10 12 -18 19 -18 9 0 12 6 9 15 -4 8 -1
15 5 15 6 0 11 5 11 11 0 18 28 39 44 33 11 -4 16 0 16 11 0 16 52 75 65 75 3
0 13 8 23 18 11 11 38 22 62 26 24 4 48 14 54 22 7 8 26 16 44 16 23 1 31 5
28 15 -4 9 3 13 19 13 14 0 25 5 25 10 0 6 14 10 30 10 17 0 38 4 48 9 9 6 30
12 45 16 19 4 27 11 25 23 -4 24 38 29 46 5 6 -20 70 -30 81 -13 4 6 13 7 24
1 10 -6 23 -6 32 0 12 8 11 11 -3 23 -25 19 -22 29 3 15 20 -10 21 -9 17 9 -5
19 -4 20 16 7 18 -12 24 -12 40 1 11 8 16 14 10 14 -5 0 -10 11 -10 25 -1 14
2 23 6 20 5 -3 13 2 18 11 6 12 18 15 36 12 15 -3 29 -1 32 3 3 5 20 9 37 9
28 0 78 19 52 20 -5 0 -3 5 5 10 11 7 5 10 -25 11 -22 1 -46 1 -54 0 -7 -2
-10 2 -6 9 4 7 18 9 31 6 17 -5 26 -2 30 9 4 8 12 15 20 15 8 0 14 7 14 15 0
8 5 15 11 15 6 0 9 7 5 15 -7 19 -2 19 16 1 12 -11 14 -7 15 26 1 21 9 46 18
54 9 9 13 24 10 32 -7 18 11 32 43 32 15 0 22 6 22 18 0 11 -10 24 -22 29
l-23 11 26 7 c21 5 25 11 21 31 -4 22 5 30 31 25 5 -1 6 3 2 9 -3 5 -1 10 6
10 7 0 10 13 7 35 -4 38 7 44 44 24 18 -10 19 -8 13 11 -6 18 -4 21 12 16 10
-3 32 -8 48 -12 28 -7 29 -6 15 11 -14 17 -13 17 10 10 14 -4 34 -9 45 -10 11
-1 23 -3 26 -4 4 0 9 -10 12 -21 3 -13 10 -18 21 -14 9 3 16 1 16 -5 0 -6 5
-11 12 -11 6 0 1 11 -12 25 -13 14 -19 25 -13 25 5 0 10 7 10 15 0 8 -4 15 -9
15 -4 0 -8 -7 -8 -16 0 -9 -6 -14 -12 -11 -7 2 -12 15 -10 28 2 19 0 21 -10
11 -17 -17 -35 -15 -42 4 -9 23 0 29 19 14 9 -7 19 -10 23 -6 4 4 -2 14 -12
22 -11 7 -17 16 -15 19 3 2 20 -9 38 -25 38 -35 45 -37 38 -10 -4 16 0 19 19
18 13 -1 25 -6 25 -10 1 -4 2 -14 3 -20 0 -7 16 -14 33 -16 27 -3 34 -9 41
-35 6 -21 5 -37 -2 -46 -8 -11 -8 -13 2 -7 20 12 72 16 72 5 0 -6 -5 -7 -12
-3 -7 4 -8 3 -4 -4 4 -6 13 -9 22 -5 9 3 14 0 12 -7 -2 -7 2 -14 8 -17 7 -2
12 2 11 9 -1 37 5 48 31 55 15 4 33 6 40 5 6 -2 12 2 12 8 0 5 7 10 15 10 8 0
15 -7 15 -15 0 -8 -6 -15 -12 -15 -7 0 -2 -6 12 -13 14 -7 24 -21 24 -30 -2
-13 3 -16 17 -12 14 5 17 2 13 -9 -5 -13 -10 -13 -27 -4 -12 6 -24 14 -27 18
-12 17 -69 39 -75 30 -4 -6 -10 -8 -15 -5 -4 3 -10 -2 -13 -9 -4 -10 5 -19 24
-28 16 -7 29 -16 29 -19 0 -4 11 -6 24 -5 13 0 22 4 19 8 -2 5 0 8 6 8 5 0 13
-9 16 -20 4 -14 12 -19 24 -15 12 4 17 -2 19 -22 1 -15 -4 -30 -10 -35 -10 -6
-10 -8 0 -8 7 0 15 7 18 15 5 13 12 11 40 -10 23 -17 34 -21 34 -13 0 8 -5 19
-11 25 -8 8 -7 13 2 18 7 5 10 4 6 -2 -4 -6 0 -14 9 -17 10 -4 13 -13 9 -25
-4 -13 1 -24 14 -33 12 -8 17 -19 12 -26 -5 -9 -11 -5 -21 12 -16 30 -73 55
-63 28 4 -9 11 -20 17 -24 7 -5 5 -8 -4 -8 -9 0 -20 4 -25 9 -6 5 -27 18 -47
30 l-38 21 0 -27 c0 -25 -1 -25 -18 -10 -20 18 -42 22 -42 8 0 -5 14 -14 30
-21 17 -7 30 -16 30 -20 0 -4 11 -10 25 -12 14 -3 25 -1 25 3 0 8 -14 13 -32
10 -5 0 -5 13 1 37 2 8 61 -40 61 -49 0 -6 -4 -7 -10 -4 -6 3 -7 -1 -4 -10 4
-8 11 -15 18 -14 29 5 76 -29 89 -65 4 -10 13 -16 21 -13 8 3 23 -1 35 -9 12
-8 26 -12 31 -9 6 3 10 -1 10 -10 0 -9 4 -14 8 -11 5 3 22 1 38 -4 16 -4 23
-9 17 -9 -7 -1 -13 -6 -13 -12 0 -6 6 -9 14 -6 8 3 31 -9 51 -29 26 -24 43
-33 56 -29 13 4 19 2 19 -9 0 -10 9 -16 25 -16 14 0 28 -7 31 -15 4 -8 14 -15
23 -16 10 0 11 -2 4 -6 -7 -2 -13 -12 -13 -21 0 -13 2 -14 8 -4 6 9 12 5 22
-13 8 -15 22 -25 35 -25 12 0 30 -7 41 -15 10 -8 27 -15 37 -15 10 0 17 -8 17
-20 0 -11 4 -20 9 -20 6 0 14 -19 18 -42 7 -37 12 -42 47 -52 21 -6 34 -14 30
-19 -4 -4 -2 -7 4 -7 7 0 12 -5 12 -11 0 -8 -4 -8 -12 -2 -7 6 -26 13 -43 17
-16 4 -33 12 -36 18 -4 5 -17 -1 -33 -15 -31 -29 -32 -32 -5 -34 14 -1 19 3
15 13 -3 9 1 14 13 14 32 0 50 -11 44 -26 -3 -8 0 -14 6 -14 6 0 11 5 11 12 0
26 15 -6 16 -35 l2 -32 -18 23 c-20 24 -30 28 -30 11 0 -20 26 -37 67 -44 42
-7 83 -38 65 -49 -13 -8 -42 3 -42 16 0 5 -4 6 -10 3 -18 -11 -10 -37 20 -66
16 -16 35 -29 40 -29 6 0 8 -5 5 -10 -3 -6 7 -22 24 -36 16 -14 28 -31 25 -37
-2 -7 7 -24 21 -37 28 -26 32 -40 12 -40 -8 0 -20 11 -27 25 -9 16 -22 25 -38
25 -18 0 -22 -3 -14 -12 5 -7 12 -22 15 -33 4 -18 5 -17 6 3 0 13 5 21 10 18
12 -8 20 -55 10 -58 -5 -2 5 -18 21 -37 17 -18 30 -35 30 -38 0 -2 -10 -7 -22
-12 -19 -7 -23 -17 -24 -52 -1 -24 -5 -55 -10 -68 -12 -40 10 -17 34 36 13 26
27 56 32 65 5 9 12 30 15 45 3 15 9 42 13 58 l9 30 12 -24 c10 -18 10 -25 1
-31 -6 -4 -12 -21 -12 -39 -1 -17 -7 -36 -14 -42 -7 -6 -11 -20 -9 -31 3 -12
0 -27 -6 -34 -5 -6 -8 -32 -5 -58 3 -31 0 -49 -10 -57 -8 -7 -13 -18 -10 -24
2 -7 -6 -17 -19 -23 -24 -11 -42 -48 -30 -60 4 -4 10 -1 12 6 7 19 23 14 23
-9 0 -11 -4 -18 -9 -15 -8 6 -26 -67 -22 -91 1 -7 -5 -13 -14 -13 -18 0 -21
-55 -4 -66 8 -5 8 -8 0 -14 -14 -8 -30 -103 -25 -145 2 -16 -2 -32 -9 -37 -6
-4 -12 -22 -13 -40 0 -18 -5 -32 -10 -31 -5 1 -15 -14 -21 -34 -9 -29 -8 -36
5 -41 9 -3 18 0 20 6 4 14 22 6 22 -9 0 -6 -4 -7 -10 -4 -6 4 -10 -6 -10 -22
0 -19 -3 -24 -9 -15 -6 10 -10 7 -15 -13 -4 -15 -5 -30 -1 -33 3 -3 5 -1 5 5
0 17 38 22 51 7 8 -10 8 -22 1 -44 -10 -28 -8 -34 11 -31 5 1 5 -8 2 -20 -5
-15 -4 -19 4 -15 6 4 11 0 11 -8 0 -9 -4 -16 -9 -16 -5 0 -16 -16 -25 -35 -13
-26 -14 -40 -6 -55 12 -22 10 -101 -2 -93 -5 2 -8 -3 -8 -11 0 -9 3 -16 8 -16
4 0 7 -18 7 -39 0 -22 -4 -37 -9 -34 -5 4 -7 -9 -3 -30 3 -23 -2 -63 -15 -108
-11 -39 -18 -80 -15 -90 3 -10 -2 -24 -9 -30 -10 -8 -13 -22 -9 -39 4 -17 1
-31 -8 -38 -8 -7 -13 -29 -12 -57 1 -25 -1 -45 -6 -45 -9 0 -25 -51 -34 -110
-4 -25 -12 -54 -18 -65 -6 -11 -12 -44 -14 -74 -3 -30 -9 -64 -15 -74 -7 -15
-7 -22 3 -28 11 -7 10 -9 -3 -9 -12 0 -19 -11 -23 -37 -11 -65 -16 -75 -32
-69 -10 4 -13 2 -10 -8 3 -8 1 -16 -6 -19 -6 -2 -11 -20 -11 -40 0 -20 -4 -37
-8 -37 -4 0 -7 -3 -6 -7 1 -5 -4 -21 -11 -38 -15 -35 -19 -52 -20 -82 -1 -13
-6 -23 -12 -23 -5 0 -7 6 -3 12 5 9 4 10 -3 3 -13 -13 -38 -95 -42 -137 -1 -5
-8 -8 -17 -8 -10 0 -14 -6 -11 -14 3 -8 -4 -24 -15 -35 -15 -16 -17 -25 -9
-35 8 -10 5 -20 -13 -39 -14 -15 -22 -34 -20 -44 3 -10 -4 -29 -15 -42 -12
-13 -21 -29 -21 -35 0 -6 -16 -35 -35 -65 -19 -29 -35 -59 -35 -67 0 -8 -4
-14 -8 -14 -4 0 -13 -12 -19 -27 -7 -16 -28 -48 -48 -73 -19 -25 -41 -56 -47
-70 -7 -14 -22 -34 -33 -45 -11 -11 -36 -38 -54 -60 -19 -22 -38 -39 -42 -38
-4 1 -14 -15 -23 -36 -8 -22 -21 -43 -27 -47 -7 -4 -9 -3 -6 4 11 16 -4 44
-19 38 -8 -3 -14 -1 -14 4 0 6 4 10 10 10 5 0 8 10 6 23 -2 14 6 30 22 45 18
17 22 26 14 34 -7 7 -8 17 -2 27 4 9 8 38 8 65 -1 26 3 51 8 54 9 7 11 17 16
94 1 23 7 38 15 38 8 0 13 14 13 38 0 21 4 42 9 48 27 29 39 297 16 357 -4 9
-3 17 1 17 11 0 10 55 0 88 -5 13 -3 29 3 36 6 7 9 29 6 48 -4 21 0 46 10 64
8 16 15 41 15 55 0 14 3 29 7 33 5 4 8 11 9 14 3 26 18 62 25 62 5 0 9 11 9
25 0 14 7 28 15 31 8 4 15 16 15 29 0 12 7 37 17 55 15 30 20 57 27 130 2 14
6 33 10 42 5 11 0 33 -13 58 -15 29 -20 57 -20 107 0 38 0 73 -1 78 -1 6 -1
15 0 20 2 9 9 94 11 135 0 8 5 26 9 40 5 14 11 39 14 55 13 85 29 151 37 159
5 6 9 18 9 28 0 10 4 26 9 36 5 9 20 51 32 92 13 41 30 89 39 105 28 51 50
115 41 115 -10 0 -5 96 6 114 6 9 16 53 25 111 2 11 10 25 18 32 12 10 12 12
1 13 -8 0 -11 6 -6 18 4 9 9 40 12 67 3 28 9 54 14 59 5 6 9 19 9 30 0 12 7
30 16 41 9 12 12 30 8 47 -4 22 -2 28 11 28 13 0 16 6 11 25 -6 22 -1 38 26
85 19 34 21 44 10 48 -7 2 -9 10 -4 20 8 16 8 31 2 50 -1 4 -3 25 -4 47 -1 28
-5 40 -16 40 -18 0 -23 -56 -6 -67 8 -5 7 -8 -2 -8 -7 0 -10 -5 -7 -10 3 -6
-1 -10 -9 -10 -10 0 -16 -9 -16 -24 0 -15 -7 -27 -17 -30 -13 -4 -19 -18 -21
-53 -2 -30 -9 -53 -19 -60 -9 -7 -18 -23 -20 -35 -2 -12 -8 -25 -14 -29 -7 -4
-8 -19 -4 -37 4 -21 1 -39 -9 -54 -9 -14 -13 -35 -10 -52 6 -35 -23 -138 -43
-149 -10 -6 -12 -17 -8 -38 4 -19 3 -29 -5 -29 -8 0 -10 -9 -6 -24 3 -14 2
-28 -4 -31 -5 -3 -10 -20 -10 -36 0 -19 -4 -28 -11 -23 -7 4 -7 -2 1 -17 11
-19 10 -24 -5 -35 -10 -8 -15 -20 -11 -31 3 -10 -1 -31 -9 -47 -10 -18 -12
-32 -6 -36 10 -6 -12 -84 -30 -106 -5 -6 -7 -19 -3 -28 3 -9 1 -23 -6 -31 -7
-8 -10 -21 -6 -30 8 -22 -25 -146 -37 -138 -6 4 -8 -2 -5 -15 4 -12 2 -22 -4
-22 -5 0 -7 -9 -3 -20 3 -10 0 -30 -7 -42 -6 -13 -13 -38 -15 -57 -1 -19 -7
-37 -13 -41 -5 -3 -9 -17 -9 -31 1 -13 -3 -44 -9 -68 -6 -25 -9 -48 -6 -52 2
-4 0 -9 -6 -11 -5 -1 -10 -26 -11 -55 -1 -29 -6 -50 -11 -47 -4 3 -9 -25 -10
-63 -2 -99 -3 -106 -15 -128 -6 -11 -8 -29 -6 -40 5 -23 5 -25 -3 -82 -3 -24
-10 -43 -16 -43 -5 0 -6 -5 -3 -10 4 -6 1 -17 -5 -25 -9 -11 -9 -15 -1 -15 6
0 11 -8 11 -17 0 -14 -2 -15 -9 -4 -7 10 -10 10 -16 1 -4 -7 -3 -15 3 -19 7
-4 9 -27 7 -56 -6 -67 -15 -95 -31 -95 -16 0 -20 -55 -4 -65 16 -10 12 -25 -5
-19 -8 4 -15 2 -15 -4 0 -6 6 -13 13 -15 10 -4 10 -6 0 -6 -7 -1 -13 -6 -13
-12 0 -5 6 -7 13 -3 9 6 9 5 0 -7 -7 -8 -10 -25 -6 -37 3 -15 0 -24 -11 -28
-11 -4 -13 -11 -7 -22 5 -9 5 -26 0 -41 -6 -13 -8 -30 -5 -38 3 -7 2 -13 -2
-13 -4 0 -9 -14 -10 -31 -1 -17 -9 -41 -18 -54 -9 -13 -14 -37 -13 -54 3 -21
-3 -34 -21 -49 -22 -18 -23 -22 -11 -48 11 -24 10 -30 -4 -40 -11 -8 -15 -20
-11 -32 4 -11 2 -23 -4 -27 -5 -3 -10 -15 -10 -25 0 -10 -6 -20 -12 -23 -10
-3 -10 -9 -3 -23 6 -11 8 -32 4 -49 -4 -16 -7 -22 -8 -12 -1 24 -21 12 -21
-13 0 -10 -6 -20 -12 -23 -10 -3 -9 -12 4 -36 19 -34 9 -50 -16 -25 -15 14
-16 13 -16 -14 0 -16 -7 -43 -16 -61 -12 -24 -13 -36 -5 -44 6 -6 11 -20 10
-31 0 -12 -3 -15 -6 -8 -10 24 -25 11 -21 -18 3 -23 1 -30 -9 -26 -8 3 -13 -2
-13 -12 -1 -18 -30 -63 -30 -46 -1 26 -30 -35 -30 -63 l0 -33 168 0 c167 1
167 1 185 26 16 21 17 27 5 41 -11 14 -11 16 2 11 16 -6 62 24 59 39 -4 18 14
43 32 43 10 0 19 7 19 15 0 8 5 15 10 15 6 0 10 7 10 15 0 8 5 15 11 15 5 0 7
5 4 11 -8 11 38 56 72 69 12 5 25 20 29 34 3 13 21 32 40 42 19 10 34 26 34
36 0 10 10 20 25 24 20 5 24 11 19 30 -5 18 -2 24 9 24 9 0 31 13 49 30 18 16
36 30 40 30 20 0 5 20 -14 21 -21 1 -21 2 5 12 15 6 27 16 27 23 0 7 8 15 19
19 13 4 17 12 14 28 -3 17 2 26 21 35 25 11 37 42 16 42 -21 0 -9 20 15 26 14
3 25 13 25 23 0 29 64 94 93 94 20 0 27 5 27 19 0 12 -4 16 -11 12 -8 -5 -10
1 -5 19 4 19 1 29 -11 36 -10 6 -16 11 -13 12 12 2 52 9 73 12 12 2 23 11 25
20 4 20 -18 23 -36 5 -17 -17 -15 -1 5 28 10 16 19 21 23 14 4 -7 18 -8 33 -4
28 6 34 18 17 29 -5 3 -10 17 -10 31 0 14 -4 22 -10 19 -5 -3 -10 -2 -10 3 0
5 10 12 21 15 17 5 20 11 16 29 -9 36 2 66 29 72 15 4 24 14 24 26 0 20 18 23
33 5 5 -5 6 9 4 33 -4 32 -2 42 9 42 18 0 18 15 -2 34 -17 18 -11 38 10 30 8
-3 17 -1 21 5 3 6 1 11 -5 11 -8 0 -10 9 -6 27 4 15 3 29 -4 33 -19 11 0 38
32 45 21 5 33 3 39 -6 6 -10 9 -7 10 11 1 14 1 31 0 38 -4 24 20 42 54 42 29
0 32 -3 28 -24 -4 -21 -2 -23 21 -19 24 5 26 3 23 -24 -2 -16 -7 -34 -11 -41
-9 -15 2 -35 15 -27 5 4 9 -1 9 -9 0 -9 -5 -16 -12 -16 -6 0 -5 -7 5 -18 13
-14 14 -21 5 -30 -9 -9 -9 -12 2 -12 11 -1 9 -5 -5 -16 -19 -14 -29 -74 -12
-74 13 0 7 -31 -10 -48 -16 -16 -16 -16 -11 0 4 10 1 19 -8 22 -35 13 -5 -34
32 -48 25 -11 26 -13 10 -29 -15 -15 -16 -22 -5 -55 14 -40 13 -115 -1 -120
-5 -2 -4 -15 3 -29 9 -21 9 -27 -1 -31 -17 -5 -15 -17 5 -38 13 -13 14 -19 5
-22 -7 -2 -9 -9 -5 -15 11 -17 13 -137 2 -137 -5 0 -9 5 -9 12 0 6 -3 8 -6 5
-4 -4 -2 -13 5 -21 9 -11 8 -15 -3 -19 -12 -5 -13 -11 -3 -38 9 -25 9 -33 0
-36 -14 -5 -18 -24 -5 -22 19 3 23 -2 12 -16 -10 -12 -10 -15 0 -15 9 0 11
-11 7 -35 -3 -19 -1 -37 4 -41 5 -3 7 -15 4 -27 -5 -19 -5 -20 5 -4 6 9 8 22
5 27 -3 6 -2 10 4 10 22 0 22 -23 1 -52 -17 -23 -19 -32 -10 -38 7 -5 20 -6
27 -3 11 4 14 -2 11 -28 -2 -25 -8 -34 -20 -33 -10 1 -18 -4 -18 -10 0 -20 11
-26 31 -15 24 13 24 2 -1 -39 -18 -30 -19 -35 -5 -48 14 -15 19 -39 16 -74 -2
-13 -1 -13 8 0 9 13 10 13 15 0 8 -26 3 -50 -11 -50 -16 0 -17 -52 -1 -68 9
-9 9 -12 0 -12 -22 0 -12 -30 13 -42 14 -6 25 -15 25 -20 0 -4 254 -8 565 -8
l565 0 -1 2278 c0 1311 -4 2265 -9 2248 -5 -16 -7 -33 -4 -38 3 -4 -2 -8 -10
-8 -11 0 -16 10 -17 33 -1 17 -3 24 -6 14 -4 -14 -8 -16 -19 -6 -11 9 -15 8
-20 -5 -3 -9 -12 -16 -20 -16 -19 0 -18 -10 3 -25 11 -8 14 -18 8 -31 -7 -17
-9 -16 -20 10 -7 17 -11 48 -9 70 l4 41 -14 -40 c-9 -28 -10 -42 -2 -47 21
-14 1 -15 -29 -2 -16 7 -24 13 -17 14 9 0 11 7 7 20 -5 14 -2 20 9 20 9 0 16
5 16 10 0 6 -7 10 -15 10 -8 0 -15 -4 -15 -10 0 -14 -27 -12 -33 3 -4 8 -6 7
-6 -3 -1 -9 4 -21 11 -28 9 -9 9 -12 0 -12 -7 0 -21 9 -32 20 -27 27 -33 25
-25 -10 6 -26 4 -30 -16 -30 -22 0 -22 0 -3 15 11 8 14 15 7 15 -7 0 -13 12
-13 26 0 29 -16 64 -30 64 -16 0 -11 -22 8 -36 15 -12 11 -13 -30 -14 -27 0
-48 -5 -48 -10 0 -6 6 -10 13 -9 20 4 67 -12 67 -23 0 -6 -17 -7 -42 -3 -52 9
-58 12 -58 31 0 9 -10 24 -22 35 -17 14 -18 17 -5 13 20 -7 23 9 3 25 -10 9
-15 9 -18 1 -4 -13 -58 -3 -58 11 0 5 6 6 14 3 8 -3 23 -1 33 5 17 10 17 10 1
11 -10 0 -18 7 -18 15 0 9 -7 18 -16 22 -9 3 -14 15 -12 28 5 36 -23 54 -70
48 -24 -3 -47 -1 -55 5 -7 6 -22 9 -33 6 -15 -4 -24 3 -37 30 -9 20 -23 36
-32 36 -8 0 -15 5 -15 10 0 6 9 10 20 10 11 0 20 -7 20 -15 0 -8 5 -15 10 -15
6 0 10 20 10 45 0 44 -15 60 -26 30 -4 -8 -12 -15 -20 -15 -7 0 -11 6 -8 13 2
7 -2 27 -11 43 -13 26 -15 27 -15 7 0 -14 -6 -23 -15 -23 -18 0 -19 12 -3 28
9 9 8 12 -5 12 -10 0 -14 5 -11 15 4 10 0 15 -14 15 -18 0 -20 5 -17 30 3 27
1 30 -16 25 -11 -4 -19 -2 -19 5 0 7 -7 9 -17 6 -24 -9 -35 15 -15 32 13 10
14 15 5 18 -7 3 -13 14 -13 24 0 34 -11 51 -24 37 -7 -6 -15 -20 -19 -31 -5
-14 -4 -17 8 -12 18 7 20 -8 2 -22 -19 -16 -44 43 -27 63 10 12 9 15 -9 15
-11 0 -21 6 -21 13 0 9 -2 9 -8 1 -5 -9 -11 -8 -21 3 -11 12 -10 14 5 11 14
-2 19 3 19 25 1 15 -3 27 -7 27 -4 0 -8 -4 -8 -10 0 -5 -9 -14 -20 -20 -16 -8
-20 -8 -20 4 0 8 7 21 15 29 13 13 13 16 -1 21 -10 4 -13 13 -9 26 5 16 2 20
-14 20 -12 0 -21 4 -21 9 0 5 -10 12 -22 15 l-23 7 23 9 c33 14 27 29 -17 36
-33 5 -40 11 -45 35 -3 18 -14 33 -27 38 -19 6 -20 9 -6 14 14 5 15 10 5 31
-6 14 -19 28 -28 31 -25 8 -48 64 -31 75 10 5 9 9 -3 13 -9 4 -16 11 -16 18 0
6 7 9 15 6 8 -4 17 -2 21 4 3 6 -3 13 -15 16 -14 3 -20 13 -20 32 0 55 -8 106
-17 106 -19 0 -34 17 -34 36 0 19 -1 20 -17 3 -17 -16 -18 -16 -23 5 -6 25 -7
25 -33 15 -22 -8 -36 4 -18 15 10 7 11 18 4 47 -5 22 -13 39 -18 39 -6 0 -16
4 -22 8 -7 5 -17 5 -23 2 -5 -3 -10 2 -10 11 0 10 -3 14 -7 10 -4 -4 -6 -25
-4 -48 1 -22 -1 -38 -6 -35 -10 6 -9 123 2 152 4 11 3 15 -2 9 -4 -6 -26 -10
-47 -10 -21 0 -34 2 -28 4 7 2 12 8 12 13 0 6 -4 8 -9 4 -5 -3 -13 0 -17 6 -4
8 3 9 25 4 42 -9 41 11 -1 21 l-33 8 35 7 c27 5 29 7 10 8 -14 0 -37 12 -52
26 -22 21 -26 31 -21 56 3 16 2 29 -3 28 -5 -1 -24 -1 -43 0 -33 1 -34 2 -15
16 18 14 18 14 -8 15 -14 0 -28 -6 -31 -12 -6 -19 -18 -4 -20 26 -1 14 -6 24
-12 23 -5 -1 -9 -5 -8 -9 2 -5 -7 -8 -20 -7 -12 0 -16 3 -9 6 10 4 10 8 1 19
-9 12 -4 14 30 14 37 0 41 2 41 25 0 14 -4 25 -10 25 -5 0 -10 -6 -10 -14 0
-21 -50 -30 -68 -12 -14 14 -12 15 19 12 19 -2 24 -1 12 1 -26 5 -31 23 -8 23
21 0 19 18 -2 23 -14 4 -13 5 4 6 33 2 38 21 6 22 -15 1 -34 1 -40 0 -7 -1
-13 6 -13 15 0 10 5 14 14 11 8 -3 22 1 33 9 17 14 17 14 -2 29 -16 13 -21 13
-30 2 -23 -30 -45 -28 -59 8 -10 23 -20 33 -29 29 -8 -3 -18 -1 -22 5 -3 7 2
11 14 11 18 0 20 3 9 19 -9 15 -9 23 1 35 14 17 56 23 46 6 -3 -6 -2 -10 3
-10 18 0 21 29 4 39 -16 9 -15 11 3 25 18 14 18 15 2 16 -9 0 -24 -8 -32 -17
-7 -10 -23 -29 -34 -43 -20 -24 -20 -24 -21 -4 0 12 7 27 15 34 21 17 8 32
-15 18 -22 -14 -48 2 -36 21 9 15 39 14 54 -1 9 -9 15 -9 24 0 8 8 5 14 -16
22 -15 5 -36 10 -47 10 -10 0 -19 5 -19 10 0 6 11 10 25 10 23 0 25 3 19 28
-11 45 -10 47 19 50 19 2 27 9 27 23 0 27 16 24 36 -7 9 -14 23 -23 30 -20 8
3 14 1 14 -4 0 -6 -7 -10 -15 -10 -8 0 -15 -4 -15 -10 0 -5 9 -10 20 -10 14 0
20 7 20 21 0 21 24 22 26 1 1 -7 3 -15 4 -19 1 -5 2 -11 1 -15 0 -5 6 -8 14
-8 9 0 12 6 9 15 -4 8 -1 15 5 15 6 0 11 -4 11 -9 0 -5 3 -17 6 -26 4 -10 2
-15 -6 -13 -7 2 -15 -3 -17 -9 -7 -20 25 -15 47 7 18 18 18 20 2 29 -15 9 -15
12 -2 21 13 8 12 11 -7 16 -28 8 -36 29 -17 44 18 16 18 31 -1 24 -8 -4 -15
-12 -15 -20 0 -13 -56 -34 -75 -27 -5 2 -21 19 -34 38 -13 19 -30 35 -37 35
-8 0 -14 5 -14 10 0 6 10 10 22 10 16 0 19 3 11 11 -8 8 -17 7 -31 -2 -26 -17
-40 -4 -24 21 15 24 15 30 2 30 -6 0 -15 -11 -20 -25 -5 -14 -16 -25 -24 -25
-10 0 -13 -6 -10 -15 5 -11 2 -13 -9 -9 -11 4 -20 -4 -30 -29 -18 -41 -33 -53
-41 -31 -3 8 -2 12 4 9 14 -8 13 28 -1 42 -16 16 -2 33 27 33 13 0 24 6 24 13
0 20 46 57 71 58 21 1 20 2 -6 10 -19 5 -31 5 -33 -1 -2 -6 -10 -10 -17 -10
-7 0 -15 -6 -18 -14 -3 -7 -15 -16 -26 -19 -24 -6 -29 8 -6 17 8 3 15 15 15
26 0 23 10 26 28 8 9 -9 13 -7 18 5 4 12 14 15 34 11 15 -4 31 -1 34 5 5 7 -2
11 -18 11 -14 0 -30 8 -35 18 -6 9 -11 11 -11 5 0 -30 -30 -10 -40 27 -6 21
-15 42 -21 46 -8 4 -7 9 1 14 7 4 9 13 6 19 -4 6 -11 9 -16 6 -13 -8 -90 16
-90 28 0 5 7 7 15 3 29 -11 14 5 -17 19 -19 8 -26 14 -15 15 11 0 17 8 17 25
0 14 0 28 0 33 1 4 -8 8 -20 10 -11 2 -20 -1 -20 -6 0 -6 -10 -8 -22 -4 -21 5
-21 6 -2 13 16 7 17 8 2 8 -21 1 -24 17 -5 24 6 3 1 6 -12 6 -16 1 -21 5 -18
15 3 8 1 17 -6 20 -7 2 -4 5 6 5 9 1 17 7 17 15 0 24 20 29 41 10 17 -16 19
-16 19 -1 0 10 -5 17 -11 17 -7 0 -9 11 -5 30 4 22 2 30 -9 30 -8 0 -12 -6 -9
-13 2 -7 -3 -21 -11 -32 -16 -19 -16 -19 -12 7 2 15 0 25 -4 22 -5 -3 -9 -18
-9 -34 0 -38 -18 -48 -22 -13 -2 23 -7 27 -25 25 -13 -2 -23 2 -23 7 0 6 -13
11 -29 11 -25 0 -28 3 -24 23 5 18 3 20 -8 9 -11 -10 -11 -16 -1 -33 16 -25 6
-42 -19 -34 -13 4 -19 2 -19 -8 0 -8 -13 -17 -30 -20 -17 -4 -30 -13 -30 -21
0 -9 6 -13 14 -10 8 3 17 1 21 -5 3 -6 -1 -11 -9 -11 -10 0 -16 -9 -16 -25 0
-17 -5 -25 -17 -24 -11 0 -13 3 -5 6 6 2 12 11 12 18 0 10 -5 11 -25 2 -13 -7
-24 -17 -22 -22 3 -14 -38 -65 -52 -65 -15 0 -14 17 2 23 6 3 3 6 -9 6 -16 1
-21 8 -22 31 0 23 3 30 15 28 9 -2 18 3 20 10 6 15 -11 16 -38 2 -12 -7 -19
-21 -19 -40 0 -31 -14 -47 -26 -29 -3 6 -1 15 6 19 8 5 7 9 -4 13 -20 8 -21
27 -1 27 8 0 15 5 15 10 0 6 -6 10 -14 10 -12 0 -12 4 -1 28 7 15 15 44 18 65
l6 38 -19 -23 c-15 -18 -22 -20 -28 -10 -5 7 -16 10 -24 7 -10 -4 -17 1 -22
17 -9 36 -7 48 8 42 18 -7 32 16 16 26 -10 6 -9 9 1 13 9 4 8 6 -5 6 -12 1
-16 6 -12 16 3 9 0 15 -10 15 -8 0 -13 -4 -10 -9 3 -5 -17 -18 -44 -29 -48
-20 -60 -37 -41 -58 5 -5 12 -20 16 -32 6 -20 4 -23 -12 -18 -16 5 -19 1 -19
-29 0 -26 5 -35 21 -38 18 -4 18 -4 -2 -6 -13 0 -23 -6 -23 -12 0 -7 -10 -9
-25 -7 -25 5 -34 -5 -15 -17 6 -3 10 -14 10 -23 0 -14 -2 -14 -9 -3 -7 11 -10
9 -16 -8 -3 -12 -15 -21 -26 -21 -22 0 -23 -4 -8 -28 11 -18 -3 -73 -18 -71
-23 4 -43 -2 -38 -11 4 -6 15 -8 25 -5 10 3 21 1 25 -5 14 -23 27 -9 22 25 -4
26 -2 35 8 35 7 0 15 3 18 8 2 4 2 0 -1 -8 -3 -8 -5 -31 -6 -50 -1 -27 -5 -35
-18 -34 -10 1 -18 -4 -18 -12 0 -20 19 -27 35 -14 11 9 15 9 15 1 0 -6 4 -11
10 -11 5 0 7 7 4 15 -4 10 0 15 15 15 15 0 19 -4 14 -16 -3 -9 0 -20 8 -25 9
-6 2 -7 -18 -3 -38 8 -73 -12 -51 -29 9 -6 8 -7 -5 -3 -10 3 -23 6 -29 6 -7 0
-7 4 0 13 8 10 5 20 -12 40 -27 32 -37 20 -26 -29 4 -18 4 -38 -1 -45 -12 -20
-11 -41 2 -34 6 4 9 0 7 -11 -2 -14 2 -18 16 -16 11 2 15 -1 11 -7 -3 -6 -12
-11 -20 -11 -8 0 -19 -8 -25 -17 -9 -15 -10 -13 -8 11 2 16 -2 31 -8 33 -7 2
-11 -12 -9 -41 l2 -45 -46 4 c-41 4 -42 4 -13 -4 48 -12 60 -28 38 -44 -17
-12 -17 -14 -2 -20 19 -7 22 -27 3 -27 -7 0 -17 10 -22 22 -6 13 -19 25 -30
27 -11 2 -24 9 -28 17 -4 8 -16 14 -25 14 -10 0 -13 -3 -6 -8 6 -4 13 -15 17
-25 4 -9 16 -21 29 -26 20 -7 18 -8 -13 -14 -19 -3 -42 -8 -51 -12 -10 -4 -18
-3 -18 3 0 6 10 13 23 15 14 3 8 5 -15 6 -25 1 -40 -4 -48 -16 -8 -13 -13 -14
-16 -5 -7 14 -34 16 -34 2 0 -5 9 -15 19 -22 15 -9 17 -16 10 -30 -13 -24 -29
-23 -29 3 0 16 -4 19 -20 14 -14 -5 -20 -2 -20 9 0 9 5 16 10 16 6 0 10 7 10
15 0 8 -4 15 -9 15 -5 0 -11 -7 -15 -15 -3 -8 -12 -15 -21 -15 -18 0 -19 -9 0
-33 17 -24 9 -47 -17 -47 -13 0 -18 5 -15 14 4 10 1 13 -9 9 -7 -3 -14 -9 -14
-14 0 -19 -19 -8 -22 13 -2 12 -9 23 -16 26 -7 2 -13 -2 -11 -9 4 -30 -2 -36
-28 -32 -28 3 -28 3 -4 -7 23 -10 23 -11 6 -24 -10 -7 -28 -11 -40 -8 -12 2
-29 -3 -38 -12 -8 -9 -21 -14 -29 -13 -7 2 -10 2 -5 0 15 -9 6 -23 -14 -23
-17 0 -20 5 -17 25 4 19 1 25 -12 25 -26 0 -32 -12 -12 -26 16 -12 16 -12 -3
-11 -16 2 -21 -6 -25 -41 -6 -38 -4 -42 12 -36 19 6 25 -10 8 -21 -16 -10 -12
-55 4 -55 8 0 17 6 19 13 4 7 6 6 6 -5 1 -11 -10 -19 -30 -23 -23 -5 -29 -11
-24 -23 4 -10 9 -25 12 -34 3 -9 19 -24 36 -33 l32 -16 -30 6 c-16 4 -32 11
-36 16 -6 10 -18 13 -92 24 -51 8 -99 45 -59 45 12 0 21 -6 19 -12 -1 -8 10
-13 28 -13 17 -1 36 -5 43 -9 7 -4 12 -2 12 4 0 13 -40 29 -57 23 -7 -3 -13 0
-13 5 0 6 8 13 18 15 16 4 16 5 0 6 -10 0 -18 8 -18 16 0 8 -4 15 -10 15 -14
0 -13 -13 2 -28 9 -9 4 -12 -26 -12 -33 0 -37 2 -26 15 11 13 8 15 -15 15 -23
0 -26 2 -15 15 11 13 10 14 -4 9 -20 -8 -21 -23 -1 -30 8 -4 13 -10 10 -14 -3
-5 2 -15 10 -23 21 -22 19 -24 -20 -25 -23 -1 -35 3 -35 12 0 8 -13 16 -30 18
-24 4 -27 2 -18 -9 8 -10 5 -18 -12 -33 -12 -11 -26 -17 -30 -15 -5 3 -10 0
-12 -6 -2 -6 -37 -11 -81 -12 -42 -1 -77 -5 -77 -8 0 -7 -162 -17 -427 -26
l-193 -6 0 27 c0 14 4 26 9 26 10 0 23 71 21 123 -1 27 3 37 11 32 8 -5 8 -2
1 11 -5 11 -10 110 -10 222 l-1 202 53 0 c67 0 113 29 143 90 26 54 28 81 8
146 -8 27 -15 59 -15 72 0 12 -9 48 -21 80 -20 54 -34 136 -45 262 -3 30 -11
87 -19 126 -8 39 -17 106 -20 150 -8 101 -24 184 -40 206 -13 19 -8 78 6 78 5
0 9 7 9 16 0 8 -4 13 -8 10 -4 -2 -14 15 -21 39 -11 38 -11 50 3 87 41 114 47
148 30 184 -16 33 -16 34 15 65 17 17 31 36 31 42 0 7 -4 6 -10 -3 -8 -13 -10
-13 -10 2 0 9 -3 24 -6 33 -4 10 -2 15 7 13 9 -2 12 10 10 45 -3 63 -22 107
-58 133 -26 20 -79 39 -95 36 -13 -3 -9 16 5 21 9 4 9 6 0 6 -8 1 -3 15 13 38
33 49 31 123 -3 138 -16 7 -23 18 -23 38 0 31 -27 97 -40 97 -5 0 -18 16 -30
36 -12 19 -24 33 -27 30 -3 -2 3 -16 12 -30 16 -24 16 -26 1 -32 -16 -6 -31 0
-31 14 -1 4 -5 25 -9 47 -5 22 -8 54 -7 71 1 17 -4 47 -12 65 -8 19 -15 39
-17 44 -8 33 -44 86 -79 118 -22 20 -35 38 -28 40 7 2 -3 7 -20 11 -18 4 -35
12 -38 17 -4 5 -19 9 -36 9 -16 0 -29 5 -29 11 0 5 -4 8 -9 4 -6 -3 -26 9 -46
26 -37 33 -58 32 -37 -1 7 -12 8 -20 2 -20 -5 0 -10 5 -10 10 0 6 -7 10 -15
10 -8 0 -16 6 -16 13 -1 6 -3 24 -4 39 -3 22 1 27 23 31 23 3 23 4 -7 6 -28 1
-32 4 -28 20 3 13 1 18 -9 14 -7 -2 -38 13 -67 34 -30 22 -73 45 -95 52 -34
11 -41 19 -46 46 -7 33 -21 45 -57 45 -11 0 -22 7 -25 15 -4 8 -10 12 -16 9
-5 -3 -12 3 -15 15 -8 32 -20 25 -15 -9 2 -16 0 -30 -4 -29 -20 1 -108 47 -92
48 11 1 15 7 11 21 -3 11 -9 20 -14 20 -5 0 -5 -7 -2 -17 4 -11 3 -14 -5 -9
-7 4 -12 16 -12 27 0 11 -4 18 -9 15 -5 -3 -14 8 -21 24 -7 18 -23 33 -36 36
-13 3 -24 9 -24 13 0 3 -11 7 -25 8 -60 6 -105 2 -99 -8 2 -4 -6 -15 -18 -24
-15 -12 -19 -19 -10 -22 14 -5 16 -23 2 -23 -5 0 -15 19 -21 43 -16 54 -25 66
-48 60 -9 -2 -23 3 -30 11 -8 9 -29 16 -48 16 -18 0 -51 9 -71 19 -50 25 -140
42 -145 27 -3 -8 -11 -7 -26 2 -11 7 -21 9 -21 5 0 -5 -16 -8 -35 -8 -45 0
-39 20 6 21 22 1 45 10 61 25 l26 24 -29 0 c-21 0 -29 -5 -29 -17z m1037
-2871 c11 4 14 2 9 -5 -4 -7 -3 -12 1 -12 16 0 45 -68 39 -91 -3 -13 -3 -18 0
-11 9 20 21 14 30 -15 8 -29 10 -41 13 -81 0 -13 5 -20 11 -17 7 4 10 -16 8
-59 -2 -36 -7 -66 -11 -66 -5 0 -5 -5 -2 -11 4 -6 14 -8 22 -5 13 5 14 -2 8
-51 -4 -31 -11 -67 -16 -81 -5 -13 -6 -28 -3 -34 13 -21 5 -92 -11 -105 -10
-6 -14 -16 -10 -22 3 -6 -1 -11 -9 -11 -9 0 -16 -5 -16 -11 0 -6 -7 -3 -16 5
-16 17 -39 22 -30 7 3 -4 -12 1 -34 11 -22 11 -40 24 -40 29 0 5 -6 9 -13 9
-8 0 -22 9 -32 20 -11 12 -26 18 -39 15 -13 -4 -30 3 -46 17 -14 13 -45 30
-69 38 -26 8 -46 22 -49 32 -2 10 -12 18 -21 18 -28 1 -51 26 -51 56 -1 27 -2
28 -14 11 -19 -25 -18 -25 -48 3 -16 16 -22 29 -16 36 6 8 0 14 -16 18 -24 6
-24 7 -10 34 16 31 18 42 5 42 -5 0 -11 -9 -14 -20 -3 -11 -13 -20 -23 -20
-16 0 -16 1 2 21 12 14 15 22 7 27 -8 5 -7 17 4 42 23 51 25 90 8 116 -18 27
-19 38 -5 29 7 -4 9 2 5 18 l-6 24 115 -1 c64 -1 116 1 116 4 0 3 26 7 58 8
86 4 110 9 162 36 14 7 26 9 28 5 2 -4 10 -5 19 -2z m-620 -1104 c-4 -3 -2
-12 4 -19 19 -23 -111 -105 -197 -124 -22 -5 -48 -12 -57 -16 -14 -5 -16 -2
-10 12 6 16 2 15 -25 -5 -22 -15 -32 -18 -32 -9 0 8 -3 9 -8 2 -4 -5 -38 -11
-75 -11 -38 -1 -102 -7 -142 -13 -75 -11 -115 -4 -115 21 0 15 28 41 38 35 5
-3 8 5 8 17 -1 30 24 29 51 -2 13 -14 20 -19 17 -10 -3 10 1 19 11 23 9 3 13
2 10 -4 -3 -6 -1 -10 4 -10 6 0 11 4 11 9 0 6 9 8 20 6 11 -2 23 2 27 9 13 21
49 28 62 12 11 -13 51 -11 49 3 -3 27 3 31 25 17 28 -18 60 -14 119 14 25 12
52 20 60 19 7 -1 36 2 63 6 28 5 53 9 57 10 3 0 10 3 14 8 4 4 10 7 12 7 3 0
2 -3 -1 -7z m-1156 -511 c29 -56 66 -111 95 -143 13 -14 13 -18 -1 -29 -8 -7
-12 -17 -9 -22 7 -10 -16 -71 -24 -64 -6 7 -23 -13 -45 -51 -11 -20 -14 -34
-7 -38 12 -7 4 -25 -11 -25 -6 0 -7 5 -3 12 4 7 3 8 -4 4 -6 -4 -9 -13 -6 -20
3 -8 1 -17 -5 -21 -6 -3 -11 -2 -11 4 0 7 -8 7 -22 2 -13 -4 -29 -6 -37 -3 -8
2 -11 0 -8 -6 4 -5 0 -15 -9 -22 -17 -15 -10 -69 10 -82 8 -6 7 -8 -1 -8 -7 0
-13 -7 -13 -15 0 -8 9 -15 19 -15 17 0 19 -6 15 -46 -2 -30 2 -58 12 -80 10
-21 14 -46 10 -64 -3 -18 -1 -30 5 -30 5 0 15 -14 21 -31 7 -21 13 -27 19 -18
5 8 10 -1 15 -27 5 -21 9 -42 10 -46 1 -5 2 -16 3 -25 1 -14 3 -15 10 -5 6 10
11 5 21 -17 7 -17 16 -31 20 -31 4 0 5 -18 3 -39 -3 -32 0 -42 18 -55 12 -8
19 -21 16 -29 -3 -9 3 -23 14 -32 11 -11 21 -38 25 -66 4 -30 11 -46 17 -42 6
4 8 -5 4 -25 -4 -21 -2 -32 8 -35 8 -4 11 -14 8 -27 -4 -15 -8 -18 -13 -10 -4
7 -12 10 -16 7 -5 -3 -15 1 -22 9 -7 8 -11 14 -8 14 3 0 -6 11 -20 25 -14 14
-29 25 -35 25 -5 0 -15 12 -21 28 -17 39 -58 103 -82 129 -12 12 -26 28 -33
36 -15 19 -75 137 -68 137 2 0 -6 16 -20 35 -13 20 -31 57 -41 83 -9 26 -22
61 -29 77 -7 17 -24 71 -37 120 -52 197 -6 493 90 575 52 44 125 90 134 84 5
-3 22 -31 39 -62z m339 -394 c0 -17 3 -19 9 -10 7 11 9 11 14 -2 4 -9 18 -21
32 -28 15 -7 24 -17 21 -25 -3 -7 3 -22 14 -33 11 -11 20 -16 20 -10 0 5 7 7
15 3 9 -3 14 -10 12 -17 -4 -12 16 -36 31 -36 14 0 112 -107 112 -123 0 -8 7
-18 16 -21 8 -3 12 -2 9 4 -3 6 -1 10 4 10 6 0 11 -5 11 -10 0 -6 11 -16 25
-22 17 -7 21 -14 14 -19 -7 -4 -3 -9 11 -14 13 -4 34 -21 48 -37 13 -16 27
-26 30 -23 3 3 16 -2 29 -10 13 -9 27 -14 32 -11 16 10 50 -24 46 -47 -4 -22
-4 -22 14 2 l18 24 6 -22 c4 -18 9 -21 24 -13 21 11 46 5 37 -9 -3 -5 -1 -9 5
-9 5 0 13 5 16 10 3 6 11 10 16 10 6 0 8 -4 4 -9 -3 -6 4 -9 15 -8 11 1 20 6
20 11 0 5 7 1 15 -10 9 -12 14 -14 15 -6 0 7 5 10 10 7 6 -4 8 -10 5 -15 -5
-9 28 -20 62 -20 16 0 22 -7 25 -27 2 -14 9 -29 17 -31 9 -3 12 0 9 10 -4 9 0
15 8 15 17 0 18 -19 2 -35 -8 -8 -5 -14 16 -22 15 -5 32 -10 37 -10 14 0 11
-9 -13 -42 l-21 -31 33 5 c30 4 31 4 15 -9 -11 -7 -15 -13 -11 -13 5 0 3 -6
-3 -14 -8 -10 -9 -16 -1 -21 6 -4 9 -14 8 -23 -2 -11 3 -16 15 -15 14 1 18 -4
14 -19 -5 -17 -2 -19 19 -15 19 3 24 0 24 -16 0 -17 5 -19 36 -14 30 5 34 4
24 -8 -7 -8 -30 -20 -51 -25 -55 -15 -49 -29 8 -19 52 10 62 7 43 -16 -12 -14
-10 -15 15 -9 23 6 27 4 22 -9 -4 -10 2 -17 18 -21 17 -4 22 -11 18 -26 -3
-11 -10 -20 -15 -20 -6 0 -8 7 -4 15 3 8 1 15 -4 15 -6 0 -10 -11 -10 -25 0
-14 5 -25 10 -25 19 0 10 -21 -14 -30 -33 -12 -42 -30 -16 -30 12 0 18 -4 15
-10 -4 -6 10 -10 34 -10 23 0 41 -3 41 -7 0 -5 4 -14 9 -22 7 -11 14 -9 37 13
16 14 33 26 38 26 5 0 -3 -11 -18 -25 -14 -13 -26 -29 -26 -35 0 -5 -6 -10
-14 -10 -16 0 -41 -28 -33 -36 3 -3 16 1 29 10 31 22 55 22 33 0 -11 -12 -13
-20 -5 -29 12 -14 3 -45 -14 -46 -53 -4 -75 -7 -104 -13 -24 -6 -33 -4 -38 7
-3 9 -14 12 -30 9 -17 -3 -22 -7 -14 -12 7 -4 -16 -5 -51 -3 -35 3 -83 5 -105
4 -29 -1 -44 4 -48 14 -6 16 -42 21 -48 6 -3 -9 -112 15 -183 42 -22 8 -71 32
-110 53 -234 127 -344 238 -422 425 -55 132 -88 241 -103 339 -34 230 -39 285
-30 294 6 6 10 21 10 34 0 13 3 21 8 18 4 -2 7 16 7 40 0 29 4 44 13 44 6 0
12 -10 12 -22z"/>
<path d="M3841 7978 l12 -23 -22 20 -22 19 7 -28 c5 -21 4 -27 -5 -22 -15 10
-141 14 -136 5 3 -3 -14 -12 -37 -18 -30 -9 -43 -10 -48 -1 -7 11 -40 3 -40
-10 0 -4 -10 -8 -22 -8 -31 0 -78 -11 -104 -24 -11 -5 -35 -8 -52 -5 -31 5
-49 -13 -36 -35 3 -5 -5 -22 -19 -36 -43 -46 -67 -131 -45 -159 5 -7 7 -22 3
-34 -5 -16 -4 -19 6 -14 9 6 11 4 6 -7 -4 -11 2 -18 16 -23 l22 -6 -23 -9
c-26 -11 -21 -30 9 -30 10 0 19 -4 19 -10 0 -12 37 -13 44 -1 3 5 -1 12 -9 15
-13 5 -13 9 -3 26 7 11 20 20 28 19 8 -1 24 2 35 6 35 15 63 51 30 39 -8 -4
-15 -2 -15 4 0 5 11 12 25 14 15 3 22 1 18 -5 -4 -7 0 -7 13 -2 10 4 34 10 52
13 26 3 30 7 21 18 -13 16 -11 17 59 18 28 1 52 -2 52 -6 0 -5 5 -8 11 -8 5 0
8 4 5 8 -2 4 11 8 30 8 25 0 33 -4 29 -14 -2 -7 -1 -11 4 -8 10 6 21 -16 21
-41 0 -9 -6 -13 -15 -10 -8 4 -17 2 -20 -4 -10 -15 -68 -42 -100 -46 -16 -2
-31 -8 -33 -13 -2 -6 -9 -10 -16 -10 -22 0 -71 -28 -96 -55 -13 -14 -29 -25
-36 -25 -7 0 -18 -16 -24 -35 -6 -19 -16 -35 -21 -35 -5 0 -9 -7 -9 -15 0 -8
9 -15 20 -15 24 0 25 -8 4 -32 -16 -17 -15 -17 29 -2 40 13 45 18 37 33 -6 12
-5 22 2 29 15 15 35 15 40 2 2 -6 24 -13 50 -15 39 -3 47 0 51 16 3 10 10 19
16 19 15 0 14 -30 -1 -30 -7 0 -5 -5 5 -11 11 -7 23 -7 35 0 11 7 12 11 4 11
-8 0 -12 6 -9 13 2 7 17 11 36 9 22 -3 31 0 27 7 -4 6 -2 11 3 11 6 0 11 -4
11 -10 0 -5 7 -7 16 -3 12 4 15 2 12 -8 -2 -8 -22 -17 -44 -20 -31 -5 -33 -6
-10 -8 21 -1 27 -5 22 -16 -4 -11 1 -15 17 -15 22 -1 21 -1 -3 -16 -24 -14
-24 -14 14 -8 46 8 43 -11 -4 -21 -17 -4 -30 -10 -30 -15 0 -5 -42 -12 -92
-16 l-93 -7 62 -12 c152 -28 355 30 440 124 12 14 19 28 15 31 -16 12 -10 31
16 44 15 8 36 24 47 36 20 22 20 22 -2 40 l-22 17 28 27 c15 14 35 26 44 26
34 0 10 90 -35 133 -10 10 -16 22 -14 26 3 4 -21 16 -53 26 -43 14 -62 27 -74
48 -9 15 -21 26 -26 22 -10 -6 -44 35 -36 44 3 2 14 -4 25 -14 11 -10 20 -14
20 -8 0 13 -33 43 -48 43 -6 0 -15 7 -20 16 -6 11 -11 13 -16 5 -4 -6 -2 -11
3 -11 6 0 11 -7 11 -15 0 -12 -8 -9 -34 11 -24 19 -33 34 -31 51 1 13 0 21 -3
19 -2 -3 -13 -1 -24 5 -18 10 -19 9 -7 -13z"/>
<path d="M3800 4226 c0 -8 -12 -17 -27 -21 -32 -8 -75 -44 -67 -56 3 -5 0 -9
-5 -9 -30 0 2 -70 40 -91 19 -10 20 -8 14 13 -4 12 -11 24 -16 26 -10 4 0 62
14 80 18 23 91 13 93 -13 3 -41 19 -97 30 -106 11 -9 12 -15 3 -26 -9 -10 -9
-19 1 -38 7 -13 10 -31 7 -39 -4 -9 1 -19 10 -24 10 -6 14 -17 10 -31 -5 -22
8 -30 16 -8 3 8 10 5 22 -10 37 -51 47 -16 13 48 -26 51 -40 107 -42 181 -3
67 -24 104 -71 124 -42 17 -45 17 -45 0z"/>
<path d="M6043 3874 c-86 -46 -149 -89 -156 -108 -3 -8 1 -22 8 -33 13 -16 15
-17 27 -2 19 24 55 30 70 11 11 -13 14 -11 18 18 4 26 11 35 33 41 16 4 27 3
27 -2 0 -6 5 -7 10 -4 6 3 10 1 10 -5 0 -7 11 -4 26 7 21 15 27 30 31 66 3 41
1 47 -16 47 -11 0 -50 -16 -88 -36z"/>
<path d="M4209 3139 c-12 -7 -12 -9 -1 -9 11 0 12 -11 7 -47 -4 -30 -1 -65 8
-94 8 -26 13 -74 12 -107 -1 -34 2 -59 6 -56 14 8 21 -17 9 -31 -9 -10 -9 -15
-1 -15 13 0 43 -55 34 -63 -3 -4 -1 -13 5 -20 7 -8 8 -18 4 -22 -4 -5 -2 -5 5
-1 8 4 15 -3 19 -21 13 -60 26 -93 36 -93 6 0 8 -3 5 -7 -4 -3 -2 -12 4 -20 7
-7 13 -30 15 -51 1 -20 7 -38 13 -40 7 -2 7 -12 0 -28 -13 -35 -11 -47 5 -41
9 4 16 -8 23 -39 6 -24 7 -44 3 -44 -4 0 -10 -9 -13 -20 -3 -13 0 -20 9 -20 8
0 14 6 15 13 0 6 5 1 10 -12 7 -17 6 -27 -2 -31 -7 -5 -5 -9 6 -14 11 -4 15
-13 12 -26 -3 -11 -1 -18 4 -14 5 3 9 1 9 -5 0 -5 3 -17 6 -25 5 -13 2 -15
-12 -10 -15 6 -14 2 6 -20 14 -15 26 -40 28 -54 1 -15 3 -34 4 -42 0 -8 -3
-24 -7 -34 -7 -15 -5 -18 6 -14 12 5 18 -7 27 -49 6 -31 9 -60 5 -65 -3 -6 1
-14 8 -19 9 -5 15 -30 16 -71 1 -35 6 -74 11 -88 5 -14 6 -26 2 -28 -4 -1 -1
-28 6 -60 12 -51 12 -58 -3 -69 -16 -12 -15 -13 1 -13 17 0 18 -6 13 -50 -3
-27 -2 -50 2 -50 8 0 23 -122 21 -174 0 -16 -6 -36 -13 -45 -7 -8 -7 -12 -2
-9 6 3 16 0 23 -8 9 -10 9 -14 1 -14 -6 0 -9 -9 -6 -20 3 -11 2 -20 -3 -20 -4
0 -10 10 -14 23 -5 17 -8 19 -15 8 -9 -13 14 -71 28 -71 4 0 7 -9 8 -20 1 -11
-3 -20 -9 -20 -6 0 -7 -8 -3 -18 12 -31 13 -67 2 -80 -8 -11 -7 -16 6 -24 10
-5 14 -14 10 -21 -4 -7 -9 -21 -10 -32 -2 -10 -8 -22 -13 -25 -10 -6 -2 -50
10 -50 4 0 0 -16 -8 -35 -11 -24 -21 -33 -32 -30 -19 6 -41 -44 -33 -76 3 -11
0 -32 -8 -45 -11 -21 -11 -27 0 -34 11 -6 11 -14 -3 -40 -19 -38 -20 -43 -6
-35 6 3 10 0 10 -9 0 -8 -5 -16 -10 -18 -7 -2 -5 -10 3 -22 19 -26 49 -14 42
16 -3 13 -1 43 4 68 l10 45 -3 -52 c-3 -54 5 -80 22 -70 12 8 22 62 28 157 6
106 14 159 24 165 11 7 21 174 22 355 1 136 -3 196 -18 330 -4 30 -8 69 -9 85
-9 105 -21 185 -45 305 -29 147 -30 151 -49 222 -2 9 -9 31 -21 68 -5 14 -14
50 -21 80 -6 30 -15 60 -19 65 -4 6 -11 30 -16 55 -4 25 -8 47 -9 50 -1 3 -5
19 -9 35 -4 17 -17 59 -29 95 -12 36 -22 70 -22 75 0 6 -4 15 -8 21 -4 7 -15
47 -26 90 -10 44 -24 92 -30 107 -6 16 -11 39 -11 53 0 13 -4 24 -10 24 -5 0
-10 6 -10 14 0 7 -9 35 -21 60 -11 26 -18 55 -15 63 4 9 -1 24 -10 34 -10 11
-14 27 -10 42 7 28 -24 60 -45 46z"/>
<path d="M6522 2904 c-8 -8 -11 -21 -9 -28 3 -8 0 -19 -6 -25 -9 -9 -8 -15 6
-22 9 -6 15 -14 13 -18 -10 -16 -14 -176 -5 -193 8 -15 5 -20 -13 -27 -20 -8
-21 -10 -6 -16 13 -5 16 -14 11 -36 -4 -21 -2 -29 9 -29 10 0 14 -14 13 -52 0
-36 4 -52 12 -51 7 2 17 -14 23 -35 8 -31 7 -39 -7 -49 -16 -12 -16 -13 1 -13
11 0 14 -4 10 -12 -14 -22 -12 -49 3 -44 8 3 13 -2 13 -12 0 -10 5 -23 11 -29
8 -8 8 -13 0 -17 -6 -4 -11 -12 -11 -17 0 -6 4 -7 10 -4 6 3 7 -1 4 -10 -4 -8
-1 -22 6 -30 7 -9 10 -18 7 -22 -4 -3 -2 -12 4 -20 6 -7 8 -13 4 -13 -4 0 -2
-7 5 -15 11 -13 10 -14 -4 -9 -24 9 -21 -23 4 -36 20 -11 28 -32 11 -27 -10 2
-11 -2 -11 -34 0 -16 3 -19 13 -11 14 12 17 1 18 -83 0 -38 2 -44 8 -25 9 32
24 10 15 -23 -3 -14 -1 -28 5 -31 6 -4 11 -14 11 -22 0 -8 -4 -12 -10 -9 -5 3
-10 1 -10 -4 0 -6 7 -11 16 -11 12 0 15 -6 10 -24 -4 -15 0 -28 9 -36 11 -9
12 -17 4 -31 -5 -11 -6 -19 -1 -19 9 0 11 -11 15 -107 1 -24 6 -43 10 -43 4 0
7 -19 7 -42 -2 -65 4 -84 26 -79 18 3 18 2 1 -16 -19 -21 -23 -53 -7 -53 6 0
10 -22 10 -48 0 -27 3 -52 7 -56 4 -3 8 -26 9 -51 1 -25 8 -55 17 -68 12 -18
13 -27 4 -36 -8 -8 -8 -19 -1 -40 7 -18 8 -35 2 -45 -6 -11 -5 -16 3 -16 6 0
9 -7 6 -15 -4 -8 -2 -17 3 -20 6 -4 5 -14 -3 -26 -10 -16 -9 -21 3 -29 12 -8
13 -13 2 -30 -8 -13 -8 -20 -2 -20 7 0 8 -6 2 -16 -11 -19 -4 -56 8 -49 5 3 6
-7 3 -22 -10 -57 -10 -188 1 -195 7 -5 7 -8 1 -8 -7 0 -9 -15 -7 -35 4 -37 18
-46 25 -18 3 11 5 7 6 -9 0 -16 -3 -28 -8 -28 -5 0 -11 -13 -14 -29 -4 -20
-14 -31 -31 -35 -26 -6 -26 -7 -11 -77 3 -14 7 -64 9 -111 2 -48 7 -91 11 -97
9 -16 45 -13 51 4 4 8 10 12 15 9 5 -3 18 -2 30 1 18 6 20 12 14 68 -3 34 -10
99 -17 144 -8 63 -8 89 0 108 9 19 9 51 2 123 -6 53 -10 129 -10 167 1 39 -4
123 -9 187 -6 65 -11 148 -12 185 -1 38 -6 73 -11 80 -5 7 -12 41 -15 75 -3
35 -10 68 -15 75 -5 6 -11 32 -12 56 -2 25 -7 50 -11 56 -4 7 -8 33 -10 59 -2
26 -13 94 -25 152 -12 58 -27 137 -35 175 -7 39 -17 88 -23 110 -10 38 -20 91
-27 145 -10 71 -29 156 -37 167 -5 7 -8 22 -7 35 2 13 1 28 -3 33 -3 6 -8 33
-12 60 -9 64 -26 143 -37 174 -6 15 -6 28 1 36 7 9 6 16 -4 24 -8 7 -12 19 -9
27 3 8 0 20 -5 27 -7 8 -8 26 -2 51 9 41 4 66 -12 66 -6 0 -8 14 -4 34 4 21 1
43 -9 62 -9 17 -11 30 -5 32 6 2 10 15 10 28 0 28 -27 32 -48 8z"/>
<path d="M1732 2543 c-10 -4 -10 -8 -1 -19 9 -11 9 -14 0 -14 -8 0 -9 -5 -1
-19 5 -11 10 -34 10 -51 0 -17 7 -47 15 -68 15 -34 15 -38 -1 -49 -16 -12 -12
-17 8 -14 4 0 20 -25 34 -57 15 -31 31 -58 36 -60 4 -2 8 -14 8 -26 0 -12 7
-32 16 -44 9 -13 13 -29 10 -37 -3 -8 -1 -14 5 -12 6 1 23 -19 37 -45 15 -26
49 -82 76 -125 26 -43 60 -98 74 -123 13 -25 34 -54 45 -64 20 -19 20 -19 13
18 -8 42 -56 177 -88 246 -11 25 -31 79 -43 120 -23 74 -73 182 -87 188 -5 2
-8 11 -8 21 0 9 -4 21 -9 26 -16 17 -90 163 -85 168 7 7 -28 47 -41 46 -5 0
-16 -3 -23 -6z"/>
<path d="M7886 1828 c-3 -7 -9 -27 -14 -45 -8 -25 -8 -31 3 -27 9 4 12 -8 12
-48 -1 -29 -3 -45 -5 -35 -5 26 -19 20 -31 -14 -13 -38 -14 -59 -2 -40 5 8 16
11 25 8 19 -7 22 -57 4 -57 -7 0 -20 -13 -29 -28 -13 -23 -14 -32 -4 -45 7 -9
15 -14 18 -10 4 3 7 2 7 -4 0 -6 -7 -14 -16 -17 -9 -3 -14 -12 -11 -20 4 -10
0 -12 -13 -9 -17 5 -18 3 -7 -21 7 -14 19 -27 27 -30 13 -3 13 -4 0 -5 -8 -1
-24 -14 -35 -29 -12 -18 -14 -23 -3 -14 13 10 18 9 29 -5 11 -13 11 -17 2 -20
-7 -3 -13 -13 -13 -23 0 -10 -5 -20 -12 -22 -7 -3 -8 -9 -3 -19 5 -8 8 -22 7
-32 -2 -10 2 -24 8 -32 7 -9 8 -15 1 -19 -12 -8 -3 -36 10 -36 5 0 9 7 9 15 0
18 20 20 21 3 0 -7 2 -25 4 -40 2 -16 -3 -34 -11 -43 -13 -13 -13 -15 -1 -15
13 0 20 -22 28 -85 1 -5 -2 -23 -6 -39 -7 -26 -6 -28 14 -21 13 4 21 2 21 -5
0 -6 -4 -8 -10 -5 -5 3 -10 -1 -10 -9 0 -9 -5 -16 -12 -16 -6 0 -8 -3 -5 -7 4
-3 -1 -12 -11 -20 -15 -13 -15 -13 4 -4 12 6 24 7 28 4 3 -3 6 1 6 10 0 8 9
18 19 22 14 4 18 12 14 23 -3 9 -3 14 1 11 4 -4 9 -32 11 -64 3 -47 2 -56 -10
-51 -11 4 -15 -2 -15 -19 0 -14 5 -25 11 -25 5 0 8 -4 4 -9 -8 -13 30 -32 48
-25 15 5 27 34 27 63 0 23 -29 -20 -30 -44 -1 -17 -3 -17 -11 5 -8 19 -6 27 5
36 9 6 16 26 16 43 0 18 7 46 16 63 9 16 11 27 5 24 -11 -7 -36 32 -27 42 3 3
6 0 6 -6 0 -7 5 -12 10 -12 6 0 10 9 10 21 0 11 -3 18 -7 16 -5 -3 -9 14 -10
36 -1 23 -6 43 -12 45 -6 2 -11 11 -11 19 0 13 3 13 15 3 9 -8 15 -8 15 -2 0
6 -7 17 -15 26 -17 16 -21 51 -5 41 6 -4 8 -11 5 -16 -4 -5 -1 -9 5 -9 12 0 2
52 -13 61 -6 4 -7 24 -4 45 4 22 2 45 -3 53 -6 10 -4 18 6 25 23 18 2 41 -25
27 -20 -11 -21 -9 -21 24 0 24 5 35 14 35 17 0 27 39 25 97 -2 30 -6 40 -16
36 -17 -7 -16 1 2 37 10 19 12 30 5 30 -8 0 -9 16 -5 49 6 51 -10 130 -29 143
-6 4 -4 10 7 14 18 7 24 34 7 34 -5 0 -10 -3 -10 -7 0 -5 -11 -13 -25 -19 -23
-11 -24 -10 -18 17 5 28 -4 42 -11 17z"/>
</g>
</svg>
